<?xml version="1.0" standalone="no"?>
 <!DOCTYPE svg PUBLIC "-//W3C//DTD SVG 1.1//EN" 
 "http://www.w3.org/Graphics/SVG/1.1/DTD/svg11.dtd"> 
<svg xmlns="http://www.w3.org/2000/svg" version="1.1" 
    width="29.7002cm" height="21.0007cm" viewBox="0 0 116930 82680 ">
<title>SVG Picture created as OpenDrop-FluxlArray-B.SilkS.svg date 2016/11/11 12:06:31 </title>
  <desc>Picture generated by PCBNEW </desc>
<g style="fill:#000000; fill-opacity:1;stroke:#000000; stroke-opacity:1;
stroke-linecap:round; stroke-linejoin:round; "
 transform="translate(0 0) scale(1 1)">
</g>
<g style="fill:#000000; fill-opacity:0.0; 
stroke:#000000; stroke-width:-0.000393701; stroke-opacity:1; 
stroke-linecap:round; stroke-linejoin:round;">
</g>
<g style="fill:#000000; fill-opacity:0.0; 
stroke:#000000; stroke-width:39.3701; stroke-opacity:1; 
stroke-linecap:round; stroke-linejoin:round;">
</g>
<g style="fill:#000000; fill-opacity:0.0; 
stroke:#000000; stroke-width:59.0551; stroke-opacity:1; 
stroke-linecap:round; stroke-linejoin:round;">
<rect x="69685.9" y="65357.2" width="42519.7" height="12598.4" rx="0" />
</g>
<g style="fill:#000000; fill-opacity:0.0; 
stroke:#000000; stroke-width:39.3701; stroke-opacity:1; 
stroke-linecap:round; stroke-linejoin:round;">
</g>
<g style="fill:#000000; fill-opacity:0.0; 
stroke:#000000; stroke-width:59.0551; stroke-opacity:1; 
stroke-linecap:round; stroke-linejoin:round;">
<rect x="3937.01" y="3937.01" width="109056" height="74806" rx="0" />
</g>
<g style="fill:#000000; fill-opacity:0.0; 
stroke:#000000; stroke-width:39.3701; stroke-opacity:1; 
stroke-linecap:round; stroke-linejoin:round;">
</g>
<g style="fill:#000000; fill-opacity:0.0; 
stroke:#000000; stroke-width:59.0551; stroke-opacity:1; 
stroke-linecap:round; stroke-linejoin:round;">
<rect x="4724.41" y="4724.41" width="107481" height="73231.2" rx="0" />
</g>
<g style="fill:#000000; fill-opacity:0.0; 
stroke:#000000; stroke-width:39.3701; stroke-opacity:1; 
stroke-linecap:round; stroke-linejoin:round;">
</g>
<g style="fill:#000000; fill-opacity:0.0; 
stroke:#000000; stroke-width:59.0551; stroke-opacity:1; 
stroke-linecap:round; stroke-linejoin:round;">
<path d="M23622 4724
L23622 3937
" />
</g>
<g style="fill:#000000; fill-opacity:0.0; 
stroke:#000000; stroke-width:39.3701; stroke-opacity:1; 
stroke-linecap:round; stroke-linejoin:round;">
</g>
<g style="fill:#000000; fill-opacity:0.0; 
stroke:#000000; stroke-width:59.0551; stroke-opacity:1; 
stroke-linecap:round; stroke-linejoin:round;">
<path d="M43307 4724
L43307 3937
" />
</g>
<g style="fill:#000000; fill-opacity:0.0; 
stroke:#000000; stroke-width:39.3701; stroke-opacity:1; 
stroke-linecap:round; stroke-linejoin:round;">
</g>
<g style="fill:#000000; fill-opacity:0.0; 
stroke:#000000; stroke-width:59.0551; stroke-opacity:1; 
stroke-linecap:round; stroke-linejoin:round;">
<path d="M62992 4724
L62992 3937
" />
</g>
<g style="fill:#000000; fill-opacity:0.0; 
stroke:#000000; stroke-width:39.3701; stroke-opacity:1; 
stroke-linecap:round; stroke-linejoin:round;">
</g>
<g style="fill:#000000; fill-opacity:0.0; 
stroke:#000000; stroke-width:59.0551; stroke-opacity:1; 
stroke-linecap:round; stroke-linejoin:round;">
<path d="M82677 4724
L82677 3937
" />
</g>
<g style="fill:#000000; fill-opacity:0.0; 
stroke:#000000; stroke-width:39.3701; stroke-opacity:1; 
stroke-linecap:round; stroke-linejoin:round;">
</g>
<g style="fill:#000000; fill-opacity:0.0; 
stroke:#000000; stroke-width:59.0551; stroke-opacity:1; 
stroke-linecap:round; stroke-linejoin:round;">
<path d="M102362 4724
L102362 3937
" />
</g>
<g style="fill:#000000; fill-opacity:0.0; 
stroke:#000000; stroke-width:39.3701; stroke-opacity:1; 
stroke-linecap:round; stroke-linejoin:round;">
</g>
<g style="fill:#000000; fill-opacity:0.0; 
stroke:#000000; stroke-width:59.0551; stroke-opacity:1; 
stroke-linecap:round; stroke-linejoin:round;">
<path d="M14169 4562
L13877 4562
" />
<path d="M14023 4562
L14023 4050
L13974 4123
L13925 4172
L13877 4196
" />
</g>
<g style="fill:#000000; fill-opacity:0.0; 
stroke:#000000; stroke-width:39.3701; stroke-opacity:1; 
stroke-linecap:round; stroke-linejoin:round;">
</g>
<g style="fill:#000000; fill-opacity:0.0; 
stroke:#000000; stroke-width:59.0551; stroke-opacity:1; 
stroke-linecap:round; stroke-linejoin:round;">
<path d="M33562 4099
L33586 4074
L33635 4050
L33757 4050
L33805 4074
L33830 4099
L33854 4147
L33854 4196
L33830 4269
L33537 4562
L33854 4562
" />
</g>
<g style="fill:#000000; fill-opacity:0.0; 
stroke:#000000; stroke-width:39.3701; stroke-opacity:1; 
stroke-linecap:round; stroke-linejoin:round;">
</g>
<g style="fill:#000000; fill-opacity:0.0; 
stroke:#000000; stroke-width:59.0551; stroke-opacity:1; 
stroke-linecap:round; stroke-linejoin:round;">
<path d="M53222 4050
L53539 4050
L53368 4245
L53442 4245
L53490 4269
L53515 4294
L53539 4342
L53539 4464
L53515 4513
L53490 4537
L53442 4562
L53295 4562
L53247 4537
L53222 4513
" />
</g>
<g style="fill:#000000; fill-opacity:0.0; 
stroke:#000000; stroke-width:39.3701; stroke-opacity:1; 
stroke-linecap:round; stroke-linejoin:round;">
</g>
<g style="fill:#000000; fill-opacity:0.0; 
stroke:#000000; stroke-width:59.0551; stroke-opacity:1; 
stroke-linecap:round; stroke-linejoin:round;">
<path d="M73175 4221
L73175 4562
" />
<path d="M73053 4026
L72932 4391
L73248 4391
" />
</g>
<g style="fill:#000000; fill-opacity:0.0; 
stroke:#000000; stroke-width:39.3701; stroke-opacity:1; 
stroke-linecap:round; stroke-linejoin:round;">
</g>
<g style="fill:#000000; fill-opacity:0.0; 
stroke:#000000; stroke-width:59.0551; stroke-opacity:1; 
stroke-linecap:round; stroke-linejoin:round;">
<path d="M92885 4050
L92641 4050
L92617 4294
L92641 4269
L92690 4245
L92812 4245
L92860 4269
L92885 4294
L92909 4342
L92909 4464
L92885 4513
L92860 4537
L92812 4562
L92690 4562
L92641 4537
L92617 4513
" />
</g>
<g style="fill:#000000; fill-opacity:0.0; 
stroke:#000000; stroke-width:39.3701; stroke-opacity:1; 
stroke-linecap:round; stroke-linejoin:round;">
</g>
<g style="fill:#000000; fill-opacity:0.0; 
stroke:#000000; stroke-width:59.0551; stroke-opacity:1; 
stroke-linecap:round; stroke-linejoin:round;">
<path d="M112545 4050
L112448 4050
L112399 4074
L112375 4099
L112326 4172
L112302 4269
L112302 4464
L112326 4513
L112350 4537
L112399 4562
L112497 4562
L112545 4537
L112570 4513
L112594 4464
L112594 4342
L112570 4294
L112545 4269
L112497 4245
L112399 4245
L112350 4269
L112326 4294
L112302 4342
" />
</g>
<g style="fill:#000000; fill-opacity:0.0; 
stroke:#000000; stroke-width:39.3701; stroke-opacity:1; 
stroke-linecap:round; stroke-linejoin:round;">
</g>
<g style="fill:#000000; fill-opacity:0.0; 
stroke:#000000; stroke-width:59.0551; stroke-opacity:1; 
stroke-linecap:round; stroke-linejoin:round;">
<path d="M23622 77955
L23622 78742
" />
</g>
<g style="fill:#000000; fill-opacity:0.0; 
stroke:#000000; stroke-width:39.3701; stroke-opacity:1; 
stroke-linecap:round; stroke-linejoin:round;">
</g>
<g style="fill:#000000; fill-opacity:0.0; 
stroke:#000000; stroke-width:59.0551; stroke-opacity:1; 
stroke-linecap:round; stroke-linejoin:round;">
<path d="M43307 77955
L43307 78742
" />
</g>
<g style="fill:#000000; fill-opacity:0.0; 
stroke:#000000; stroke-width:39.3701; stroke-opacity:1; 
stroke-linecap:round; stroke-linejoin:round;">
</g>
<g style="fill:#000000; fill-opacity:0.0; 
stroke:#000000; stroke-width:59.0551; stroke-opacity:1; 
stroke-linecap:round; stroke-linejoin:round;">
<path d="M62992 77955
L62992 78742
" />
</g>
<g style="fill:#000000; fill-opacity:0.0; 
stroke:#000000; stroke-width:39.3701; stroke-opacity:1; 
stroke-linecap:round; stroke-linejoin:round;">
</g>
<g style="fill:#000000; fill-opacity:0.0; 
stroke:#000000; stroke-width:59.0551; stroke-opacity:1; 
stroke-linecap:round; stroke-linejoin:round;">
<path d="M82677 77955
L82677 78742
" />
</g>
<g style="fill:#000000; fill-opacity:0.0; 
stroke:#000000; stroke-width:39.3701; stroke-opacity:1; 
stroke-linecap:round; stroke-linejoin:round;">
</g>
<g style="fill:#000000; fill-opacity:0.0; 
stroke:#000000; stroke-width:59.0551; stroke-opacity:1; 
stroke-linecap:round; stroke-linejoin:round;">
<path d="M102362 77955
L102362 78742
" />
</g>
<g style="fill:#000000; fill-opacity:0.0; 
stroke:#000000; stroke-width:39.3701; stroke-opacity:1; 
stroke-linecap:round; stroke-linejoin:round;">
</g>
<g style="fill:#000000; fill-opacity:0.0; 
stroke:#000000; stroke-width:59.0551; stroke-opacity:1; 
stroke-linecap:round; stroke-linejoin:round;">
<path d="M14169 78580
L13877 78580
" />
<path d="M14023 78580
L14023 78069
L13974 78142
L13925 78190
L13877 78215
" />
</g>
<g style="fill:#000000; fill-opacity:0.0; 
stroke:#000000; stroke-width:39.3701; stroke-opacity:1; 
stroke-linecap:round; stroke-linejoin:round;">
</g>
<g style="fill:#000000; fill-opacity:0.0; 
stroke:#000000; stroke-width:59.0551; stroke-opacity:1; 
stroke-linecap:round; stroke-linejoin:round;">
<path d="M33562 78117
L33586 78093
L33635 78069
L33757 78069
L33805 78093
L33830 78117
L33854 78166
L33854 78215
L33830 78288
L33537 78580
L33854 78580
" />
</g>
<g style="fill:#000000; fill-opacity:0.0; 
stroke:#000000; stroke-width:39.3701; stroke-opacity:1; 
stroke-linecap:round; stroke-linejoin:round;">
</g>
<g style="fill:#000000; fill-opacity:0.0; 
stroke:#000000; stroke-width:59.0551; stroke-opacity:1; 
stroke-linecap:round; stroke-linejoin:round;">
<path d="M53222 78069
L53539 78069
L53368 78263
L53442 78263
L53490 78288
L53515 78312
L53539 78361
L53539 78483
L53515 78532
L53490 78556
L53442 78580
L53295 78580
L53247 78556
L53222 78532
" />
</g>
<g style="fill:#000000; fill-opacity:0.0; 
stroke:#000000; stroke-width:39.3701; stroke-opacity:1; 
stroke-linecap:round; stroke-linejoin:round;">
</g>
<g style="fill:#000000; fill-opacity:0.0; 
stroke:#000000; stroke-width:59.0551; stroke-opacity:1; 
stroke-linecap:round; stroke-linejoin:round;">
<path d="M73175 78239
L73175 78580
" />
<path d="M73053 78044
L72932 78410
L73248 78410
" />
</g>
<g style="fill:#000000; fill-opacity:0.0; 
stroke:#000000; stroke-width:39.3701; stroke-opacity:1; 
stroke-linecap:round; stroke-linejoin:round;">
</g>
<g style="fill:#000000; fill-opacity:0.0; 
stroke:#000000; stroke-width:59.0551; stroke-opacity:1; 
stroke-linecap:round; stroke-linejoin:round;">
<path d="M92885 78069
L92641 78069
L92617 78312
L92641 78288
L92690 78263
L92812 78263
L92860 78288
L92885 78312
L92909 78361
L92909 78483
L92885 78532
L92860 78556
L92812 78580
L92690 78580
L92641 78556
L92617 78532
" />
</g>
<g style="fill:#000000; fill-opacity:0.0; 
stroke:#000000; stroke-width:39.3701; stroke-opacity:1; 
stroke-linecap:round; stroke-linejoin:round;">
</g>
<g style="fill:#000000; fill-opacity:0.0; 
stroke:#000000; stroke-width:59.0551; stroke-opacity:1; 
stroke-linecap:round; stroke-linejoin:round;">
<path d="M112545 78069
L112448 78069
L112399 78093
L112375 78117
L112326 78190
L112302 78288
L112302 78483
L112326 78532
L112350 78556
L112399 78580
L112497 78580
L112545 78556
L112570 78532
L112594 78483
L112594 78361
L112570 78312
L112545 78288
L112497 78263
L112399 78263
L112350 78288
L112326 78312
L112302 78361
" />
</g>
<g style="fill:#000000; fill-opacity:0.0; 
stroke:#000000; stroke-width:39.3701; stroke-opacity:1; 
stroke-linecap:round; stroke-linejoin:round;">
</g>
<g style="fill:#000000; fill-opacity:0.0; 
stroke:#000000; stroke-width:59.0551; stroke-opacity:1; 
stroke-linecap:round; stroke-linejoin:round;">
<path d="M3937 23622
L4724 23622
" />
</g>
<g style="fill:#000000; fill-opacity:0.0; 
stroke:#000000; stroke-width:39.3701; stroke-opacity:1; 
stroke-linecap:round; stroke-linejoin:round;">
</g>
<g style="fill:#000000; fill-opacity:0.0; 
stroke:#000000; stroke-width:59.0551; stroke-opacity:1; 
stroke-linecap:round; stroke-linejoin:round;">
<path d="M3937 43307
L4724 43307
" />
</g>
<g style="fill:#000000; fill-opacity:0.0; 
stroke:#000000; stroke-width:39.3701; stroke-opacity:1; 
stroke-linecap:round; stroke-linejoin:round;">
</g>
<g style="fill:#000000; fill-opacity:0.0; 
stroke:#000000; stroke-width:59.0551; stroke-opacity:1; 
stroke-linecap:round; stroke-linejoin:round;">
<path d="M3937 62992
L4724 62992
" />
</g>
<g style="fill:#000000; fill-opacity:0.0; 
stroke:#000000; stroke-width:39.3701; stroke-opacity:1; 
stroke-linecap:round; stroke-linejoin:round;">
</g>
<g style="fill:#000000; fill-opacity:0.0; 
stroke:#000000; stroke-width:59.0551; stroke-opacity:1; 
stroke-linecap:round; stroke-linejoin:round;">
<path d="M4208 13864
L4452 13864
" />
<path d="M4160 14011
L4330 13499
L4501 14011
" />
</g>
<g style="fill:#000000; fill-opacity:0.0; 
stroke:#000000; stroke-width:39.3701; stroke-opacity:1; 
stroke-linecap:round; stroke-linejoin:round;">
</g>
<g style="fill:#000000; fill-opacity:0.0; 
stroke:#000000; stroke-width:59.0551; stroke-opacity:1; 
stroke-linecap:round; stroke-linejoin:round;">
<path d="M4367 33428
L4440 33452
L4464 33476
L4489 33525
L4489 33598
L4464 33647
L4440 33671
L4391 33696
L4196 33696
L4196 33184
L4367 33184
L4416 33208
L4440 33233
L4464 33281
L4464 33330
L4440 33379
L4416 33403
L4367 33428
L4196 33428
" />
</g>
<g style="fill:#000000; fill-opacity:0.0; 
stroke:#000000; stroke-width:39.3701; stroke-opacity:1; 
stroke-linecap:round; stroke-linejoin:round;">
</g>
<g style="fill:#000000; fill-opacity:0.0; 
stroke:#000000; stroke-width:59.0551; stroke-opacity:1; 
stroke-linecap:round; stroke-linejoin:round;">
<path d="M4489 53332
L4464 53356
L4391 53381
L4342 53381
L4269 53356
L4221 53308
L4196 53259
L4172 53161
L4172 53088
L4196 52991
L4221 52942
L4269 52893
L4342 52869
L4391 52869
L4464 52893
L4489 52918
" />
</g>
<g style="fill:#000000; fill-opacity:0.0; 
stroke:#000000; stroke-width:39.3701; stroke-opacity:1; 
stroke-linecap:round; stroke-linejoin:round;">
</g>
<g style="fill:#000000; fill-opacity:0.0; 
stroke:#000000; stroke-width:59.0551; stroke-opacity:1; 
stroke-linecap:round; stroke-linejoin:round;">
<path d="M4196 73066
L4196 72554
L4318 72554
L4391 72578
L4440 72627
L4464 72676
L4489 72773
L4489 72846
L4464 72944
L4440 72993
L4391 73041
L4318 73066
L4196 73066
" />
</g>
<g style="fill:#000000; fill-opacity:0.0; 
stroke:#000000; stroke-width:39.3701; stroke-opacity:1; 
stroke-linecap:round; stroke-linejoin:round;">
</g>
<g style="fill:#000000; fill-opacity:0.0; 
stroke:#000000; stroke-width:59.0551; stroke-opacity:1; 
stroke-linecap:round; stroke-linejoin:round;">
<path d="M112992 23622
L112205 23622
" />
</g>
<g style="fill:#000000; fill-opacity:0.0; 
stroke:#000000; stroke-width:39.3701; stroke-opacity:1; 
stroke-linecap:round; stroke-linejoin:round;">
</g>
<g style="fill:#000000; fill-opacity:0.0; 
stroke:#000000; stroke-width:59.0551; stroke-opacity:1; 
stroke-linecap:round; stroke-linejoin:round;">
<path d="M112992 43307
L112205 43307
" />
</g>
<g style="fill:#000000; fill-opacity:0.0; 
stroke:#000000; stroke-width:39.3701; stroke-opacity:1; 
stroke-linecap:round; stroke-linejoin:round;">
</g>
<g style="fill:#000000; fill-opacity:0.0; 
stroke:#000000; stroke-width:59.0551; stroke-opacity:1; 
stroke-linecap:round; stroke-linejoin:round;">
<path d="M112992 62992
L112205 62992
" />
</g>
<g style="fill:#000000; fill-opacity:0.0; 
stroke:#000000; stroke-width:39.3701; stroke-opacity:1; 
stroke-linecap:round; stroke-linejoin:round;">
</g>
<g style="fill:#000000; fill-opacity:0.0; 
stroke:#000000; stroke-width:59.0551; stroke-opacity:1; 
stroke-linecap:round; stroke-linejoin:round;">
<path d="M112477 13864
L112721 13864
" />
<path d="M112428 14011
L112599 13499
L112769 14011
" />
</g>
<g style="fill:#000000; fill-opacity:0.0; 
stroke:#000000; stroke-width:39.3701; stroke-opacity:1; 
stroke-linecap:round; stroke-linejoin:round;">
</g>
<g style="fill:#000000; fill-opacity:0.0; 
stroke:#000000; stroke-width:59.0551; stroke-opacity:1; 
stroke-linecap:round; stroke-linejoin:round;">
<path d="M112635 33428
L112708 33452
L112733 33476
L112757 33525
L112757 33598
L112733 33647
L112708 33671
L112660 33696
L112465 33696
L112465 33184
L112635 33184
L112684 33208
L112708 33233
L112733 33281
L112733 33330
L112708 33379
L112684 33403
L112635 33428
L112465 33428
" />
</g>
<g style="fill:#000000; fill-opacity:0.0; 
stroke:#000000; stroke-width:39.3701; stroke-opacity:1; 
stroke-linecap:round; stroke-linejoin:round;">
</g>
<g style="fill:#000000; fill-opacity:0.0; 
stroke:#000000; stroke-width:59.0551; stroke-opacity:1; 
stroke-linecap:round; stroke-linejoin:round;">
<path d="M112757 53332
L112733 53356
L112660 53381
L112611 53381
L112538 53356
L112489 53308
L112465 53259
L112440 53161
L112440 53088
L112465 52991
L112489 52942
L112538 52893
L112611 52869
L112660 52869
L112733 52893
L112757 52918
" />
</g>
<g style="fill:#000000; fill-opacity:0.0; 
stroke:#000000; stroke-width:39.3701; stroke-opacity:1; 
stroke-linecap:round; stroke-linejoin:round;">
</g>
<g style="fill:#000000; fill-opacity:0.0; 
stroke:#000000; stroke-width:59.0551; stroke-opacity:1; 
stroke-linecap:round; stroke-linejoin:round;">
<path d="M112465 73066
L112465 72554
L112587 72554
L112660 72578
L112708 72627
L112733 72676
L112757 72773
L112757 72846
L112733 72944
L112708 72993
L112660 73041
L112587 73066
L112465 73066
" />
</g>
<g style="fill:#000000; fill-opacity:0.0; 
stroke:#000000; stroke-width:39.3701; stroke-opacity:1; 
stroke-linecap:round; stroke-linejoin:round;">
</g>
<g style="fill:#000000; fill-opacity:0.0; 
stroke:#000000; stroke-width:59.0551; stroke-opacity:1; 
stroke-linecap:round; stroke-linejoin:round;">
<path d="M78881 76293
L78881 75703
L79022 75703
L79106 75731
L79162 75787
L79190 75843
L79219 75956
L79219 76040
L79190 76153
L79162 76209
L79106 76265
L79022 76293
L78881 76293
" />
<path d="M79725 76293
L79725 75984
L79697 75928
L79640 75899
L79528 75899
L79472 75928
" />
<path d="M79725 76265
L79669 76293
L79528 76293
L79472 76265
L79444 76209
L79444 76153
L79472 76096
L79528 76068
L79669 76068
L79725 76040
" />
<path d="M79922 75899
L80147 75899
" />
<path d="M80006 75703
L80006 76209
L80034 76265
L80090 76293
L80147 76293
" />
<path d="M80568 76265
L80512 76293
L80400 76293
L80343 76265
L80315 76209
L80315 75984
L80343 75928
L80400 75899
L80512 75899
L80568 75928
L80597 75984
L80597 76040
L80315 76096
" />
<path d="M80850 76237
L80878 76265
L80850 76293
L80822 76265
L80850 76237
L80850 76293
" />
<path d="M80850 75928
L80878 75956
L80850 75984
L80822 75956
L80850 75928
L80850 75984
" />
<path d="M81553 75759
L81581 75731
L81637 75703
L81778 75703
L81834 75731
L81862 75759
L81890 75815
L81890 75871
L81862 75956
L81525 76293
L81890 76293
" />
<path d="M82256 75703
L82312 75703
L82368 75731
L82396 75759
L82424 75815
L82453 75928
L82453 76068
L82424 76181
L82396 76237
L82368 76265
L82312 76293
L82256 76293
L82199 76265
L82171 76237
L82143 76181
L82115 76068
L82115 75928
L82143 75815
L82171 75759
L82199 75731
L82256 75703
" />
<path d="M83015 76293
L82678 76293
" />
<path d="M82846 76293
L82846 75703
L82790 75787
L82734 75843
L82678 75871
" />
<path d="M83521 75703
L83409 75703
L83352 75731
L83324 75759
L83268 75843
L83240 75956
L83240 76181
L83268 76237
L83296 76265
L83352 76293
L83465 76293
L83521 76265
L83549 76237
L83577 76181
L83577 76040
L83549 75984
L83521 75956
L83465 75928
L83352 75928
L83296 75956
L83268 75984
L83240 76040
" />
<path d="M83831 76068
L84280 76068
" />
<path d="M84871 76293
L84534 76293
" />
<path d="M84702 76293
L84702 75703
L84646 75787
L84590 75843
L84534 75871
" />
<path d="M85433 76293
L85096 76293
" />
<path d="M85265 76293
L85265 75703
L85208 75787
L85152 75843
L85096 75871
" />
<path d="M85687 76068
L86136 76068
" />
<path d="M86727 76293
L86390 76293
" />
<path d="M86558 76293
L86558 75703
L86502 75787
L86446 75843
L86390 75871
" />
<path d="M87289 76293
L86952 76293
" />
<path d="M87121 76293
L87121 75703
L87064 75787
L87008 75843
L86952 75871
" />
</g>
<g style="fill:#000000; fill-opacity:0.0; 
stroke:#000000; stroke-width:39.3701; stroke-opacity:1; 
stroke-linecap:round; stroke-linejoin:round;">
</g>
<g style="fill:#000000; fill-opacity:0.0; 
stroke:#000000; stroke-width:59.0551; stroke-opacity:1; 
stroke-linecap:round; stroke-linejoin:round;">
<path d="M69685 76577
L112205 76577
" />
</g>
<g style="fill:#000000; fill-opacity:0.0; 
stroke:#000000; stroke-width:39.3701; stroke-opacity:1; 
stroke-linecap:round; stroke-linejoin:round;">
</g>
<g style="fill:#000000; fill-opacity:0.0; 
stroke:#000000; stroke-width:59.0551; stroke-opacity:1; 
stroke-linecap:round; stroke-linejoin:round;">
<path d="M70220 77395
L70220 76805
" />
<path d="M70557 77395
L70304 77058
" />
<path d="M70557 76805
L70220 77142
" />
<path d="M70810 77395
L70810 77002
" />
<path d="M70810 76805
L70782 76833
L70810 76861
L70838 76833
L70810 76805
L70810 76861
" />
<path d="M71429 77339
L71401 77367
L71316 77395
L71260 77395
L71176 77367
L71120 77311
L71091 77255
L71063 77142
L71063 77058
L71091 76946
L71120 76889
L71176 76833
L71260 76805
L71316 76805
L71401 76833
L71429 76861
" />
<path d="M71935 77395
L71935 77086
L71907 77030
L71851 77002
L71738 77002
L71682 77030
" />
<path d="M71935 77367
L71879 77395
L71738 77395
L71682 77367
L71654 77311
L71654 77255
L71682 77199
L71738 77171
L71879 77171
L71935 77142
" />
<path d="M72469 77395
L72469 76805
" />
<path d="M72469 77367
L72413 77395
L72301 77395
L72244 77367
L72216 77339
L72188 77283
L72188 77114
L72216 77058
L72244 77030
L72301 77002
L72413 77002
L72469 77030
" />
<path d="M73201 77086
L73397 77086
" />
<path d="M73482 77395
L73201 77395
L73201 76805
L73482 76805
" />
<path d="M73735 77339
L73763 77367
L73735 77395
L73707 77367
L73735 77339
L73735 77395
" />
<path d="M74016 77395
L74016 76805
L74157 76805
L74241 76833
L74297 76889
L74325 76946
L74354 77058
L74354 77142
L74325 77255
L74297 77311
L74241 77367
L74157 77395
L74016 77395
" />
<path d="M74607 77339
L74635 77367
L74607 77395
L74579 77367
L74607 77339
L74607 77395
" />
<path d="M74860 77227
L75141 77227
" />
<path d="M74804 77395
L75000 76805
L75197 77395
" />
<path d="M75394 77339
L75422 77367
L75394 77395
L75366 77367
L75394 77339
L75394 77395
" />
<path d="M76575 77395
L76575 76805
" />
<path d="M76631 77171
L76800 77395
" />
<path d="M76800 77002
L76575 77227
" />
<path d="M77053 77395
L77053 77002
" />
<path d="M77053 76805
L77025 76833
L77053 76861
L77081 76833
L77053 76805
L77053 76861
" />
<path d="M77588 77367
L77531 77395
L77419 77395
L77363 77367
L77334 77339
L77306 77283
L77306 77114
L77334 77058
L77363 77030
L77419 77002
L77531 77002
L77588 77030
" />
<path d="M78094 77395
L78094 77086
L78066 77030
L78009 77002
L77897 77002
L77841 77030
" />
<path d="M78094 77367
L78037 77395
L77897 77395
L77841 77367
L77813 77311
L77813 77255
L77841 77199
L77897 77171
L78037 77171
L78094 77142
" />
<path d="M78628 77395
L78628 76805
" />
<path d="M78628 77367
L78572 77395
L78459 77395
L78403 77367
L78375 77339
L78347 77283
L78347 77114
L78375 77058
L78403 77030
L78459 77002
L78572 77002
L78628 77030
" />
<path d="M79612 77002
L79612 77395
" />
<path d="M79472 76777
L79331 77199
L79697 77199
" />
<path d="M79922 77339
L79950 77367
L79922 77395
L79894 77367
L79922 77339
L79922 77395
" />
<path d="M80315 76805
L80372 76805
L80428 76833
L80456 76861
L80484 76917
L80512 77030
L80512 77171
L80484 77283
L80456 77339
L80428 77367
L80372 77395
L80315 77395
L80259 77367
L80231 77339
L80203 77283
L80175 77171
L80175 77030
L80203 76917
L80231 76861
L80259 76833
L80315 76805
" />
<path d="M80765 77339
L80793 77367
L80765 77395
L80737 77367
L80765 77339
L80765 77395
" />
<path d="M81356 77395
L81018 77395
" />
<path d="M81187 77395
L81187 76805
L81131 76889
L81075 76946
L81018 76974
" />
<path d="M81609 77171
L82059 77171
" />
<path d="M82312 77367
L82368 77395
L82481 77395
L82537 77367
L82565 77311
L82565 77283
L82537 77227
L82481 77199
L82396 77199
L82340 77171
L82312 77114
L82312 77086
L82340 77030
L82396 77002
L82481 77002
L82537 77030
" />
<path d="M82734 77002
L82959 77002
" />
<path d="M82818 76805
L82818 77311
L82846 77367
L82903 77395
L82959 77395
" />
<path d="M83409 77395
L83409 77086
L83381 77030
L83324 77002
L83212 77002
L83156 77030
" />
<path d="M83409 77367
L83352 77395
L83212 77395
L83156 77367
L83127 77311
L83127 77255
L83156 77199
L83212 77171
L83352 77171
L83409 77142
" />
<path d="M83690 77395
L83690 76805
" />
<path d="M83690 77030
L83746 77002
L83859 77002
L83915 77030
L83943 77058
L83971 77114
L83971 77283
L83943 77339
L83915 77367
L83859 77395
L83746 77395
L83690 77367
" />
<path d="M84309 77395
L84252 77367
L84224 77311
L84224 76805
" />
<path d="M84759 77367
L84702 77395
L84590 77395
L84534 77367
L84505 77311
L84505 77086
L84534 77030
L84590 77002
L84702 77002
L84759 77030
L84787 77086
L84787 77142
L84505 77199
" />
</g>
<g style="fill:#000000; fill-opacity:0.0; 
stroke:#000000; stroke-width:39.3701; stroke-opacity:1; 
stroke-linecap:round; stroke-linejoin:round;">
</g>
<g style="fill:#000000; fill-opacity:0.0; 
stroke:#000000; stroke-width:59.0551; stroke-opacity:1; 
stroke-linecap:round; stroke-linejoin:round;">
<path d="M69685 75396
L112205 75396
" />
</g>
<g style="fill:#000000; fill-opacity:0.0; 
stroke:#000000; stroke-width:39.3701; stroke-opacity:1; 
stroke-linecap:round; stroke-linejoin:round;">
</g>
<g style="fill:#000000; fill-opacity:0.0; 
stroke:#000000; stroke-width:118.11; stroke-opacity:1; 
stroke-linecap:round; stroke-linejoin:round;">
<path d="M104022 76293
L103825 76012
" />
<path d="M103684 76293
L103684 75703
L103909 75703
L103965 75731
L103994 75759
L104022 75815
L104022 75899
L103994 75956
L103965 75984
L103909 76012
L103684 76012
" />
<path d="M104500 76265
L104444 76293
L104331 76293
L104275 76265
L104247 76209
L104247 75984
L104275 75928
L104331 75899
L104444 75899
L104500 75928
L104528 75984
L104528 76040
L104247 76096
" />
<path d="M104725 75899
L104865 76293
L105006 75899
" />
<path d="M105231 76237
L105259 76265
L105231 76293
L105203 76265
L105231 76237
L105231 76293
" />
<path d="M105231 75928
L105259 75956
L105231 75984
L105203 75956
L105231 75928
L105231 75984
" />
<path d="M105906 75899
L106046 76293
L106187 75899
" />
<path d="M106721 76293
L106384 76293
" />
<path d="M106553 76293
L106553 75703
L106496 75787
L106440 75843
L106384 75871
" />
<path d="M106974 76237
L107003 76265
L106974 76293
L106946 76265
L106974 76237
L106974 76293
" />
<path d="M107368 75703
L107424 75703
L107481 75731
L107509 75759
L107537 75815
L107565 75928
L107565 76068
L107537 76181
L107509 76237
L107481 76265
L107424 76293
L107368 76293
L107312 76265
L107284 76237
L107256 76181
L107228 76068
L107228 75928
L107256 75815
L107284 75759
L107312 75731
L107368 75703
" />
</g>
<g style="fill:#000000; fill-opacity:0.0; 
stroke:#000000; stroke-width:39.3701; stroke-opacity:1; 
stroke-linecap:round; stroke-linejoin:round;">
</g>
<g style="fill:#000000; fill-opacity:0.0; 
stroke:#000000; stroke-width:59.0551; stroke-opacity:1; 
stroke-linecap:round; stroke-linejoin:round;">
<path d="M70192 76265
L70276 76293
L70417 76293
L70473 76265
L70501 76237
L70529 76181
L70529 76124
L70501 76068
L70473 76040
L70417 76012
L70304 75984
L70248 75956
L70220 75928
L70192 75871
L70192 75815
L70220 75759
L70248 75731
L70304 75703
L70445 75703
L70529 75731
" />
<path d="M70782 76293
L70782 75899
" />
<path d="M70782 75703
L70754 75731
L70782 75759
L70810 75731
L70782 75703
L70782 75759
" />
<path d="M71007 75899
L71316 75899
L71007 76293
L71316 76293
" />
<path d="M71766 76265
L71710 76293
L71598 76293
L71541 76265
L71513 76209
L71513 75984
L71541 75928
L71598 75899
L71710 75899
L71766 75928
L71795 75984
L71795 76040
L71513 76096
" />
<path d="M72048 76237
L72076 76265
L72048 76293
L72019 76265
L72048 76237
L72048 76293
" />
<path d="M72048 75928
L72076 75956
L72048 75984
L72019 75956
L72048 75928
L72048 75984
" />
<path d="M72751 76124
L73032 76124
" />
<path d="M72694 76293
L72891 75703
L73088 76293
" />
<path d="M73538 75899
L73538 76293
" />
<path d="M73397 75674
L73257 76096
L73622 76096
" />
</g>
<g style="fill:#000000; fill-opacity:0.0; 
stroke:#000000; stroke-width:39.3701; stroke-opacity:1; 
stroke-linecap:round; stroke-linejoin:round;">
</g>
<g style="fill:#000000; fill-opacity:0.0; 
stroke:#000000; stroke-width:59.0551; stroke-opacity:1; 
stroke-linecap:round; stroke-linejoin:round;">
<path d="M103684 77395
L103684 76805
" />
<path d="M104219 77395
L104219 76805
" />
<path d="M104219 77367
L104162 77395
L104050 77395
L103994 77367
L103965 77339
L103937 77283
L103937 77114
L103965 77058
L103994 77030
L104050 77002
L104162 77002
L104219 77030
" />
<path d="M104500 77339
L104528 77367
L104500 77395
L104472 77367
L104500 77339
L104500 77395
" />
<path d="M104500 77030
L104528 77058
L104500 77086
L104472 77058
L104500 77030
L104500 77086
" />
<path d="M105540 77395
L105203 77395
" />
<path d="M105372 77395
L105372 76805
L105315 76889
L105259 76946
L105203 76974
" />
<path d="M106215 76777
L105709 77536
" />
<path d="M106721 77395
L106384 77395
" />
<path d="M106553 77395
L106553 76805
L106496 76889
L106440 76946
L106384 76974
" />
</g>
<g style="fill:#000000; fill-opacity:0.0; 
stroke:#000000; stroke-width:39.3701; stroke-opacity:1; 
stroke-linecap:round; stroke-linejoin:round;">
</g>
<g style="fill:#000000; fill-opacity:0.0; 
stroke:#000000; stroke-width:59.0551; stroke-opacity:1; 
stroke-linecap:round; stroke-linejoin:round;">
<path d="M69685 73821
L112205 73821
" />
</g>
<g style="fill:#000000; fill-opacity:0.0; 
stroke:#000000; stroke-width:39.3701; stroke-opacity:1; 
stroke-linecap:round; stroke-linejoin:round;">
</g>
<g style="fill:#000000; fill-opacity:0.0; 
stroke:#000000; stroke-width:157.48; stroke-opacity:1; 
stroke-linecap:round; stroke-linejoin:round;">
<path d="M70257 74099
L70707 74099
" />
<path d="M70384 74886
L70482 74099
" />
<path d="M70871 74886
L70937 74361
" />
<path d="M70970 74099
L70927 74136
L70960 74174
L71002 74136
L70970 74099
L70960 74174
" />
<path d="M71199 74361
L71499 74361
" />
<path d="M71345 74099
L71260 74774
L71288 74849
L71359 74886
L71434 74886
" />
<path d="M71809 74886
L71738 74849
L71710 74774
L71795 74099
" />
<path d="M72413 74849
L72334 74886
L72184 74886
L72113 74849
L72085 74774
L72123 74474
L72169 74399
L72249 74361
L72399 74361
L72469 74399
L72498 74474
L72488 74549
L72104 74624
" />
<path d="M72793 74811
L72826 74849
L72783 74886
L72751 74849
L72793 74811
L72783 74886
" />
<path d="M72844 74399
L72877 74436
L72835 74474
L72802 74436
L72844 74399
L72835 74474
" />
<path d="M74072 74474
L73810 74474
" />
<path d="M73758 74886
L73857 74099
L74232 74099
" />
<path d="M74546 74886
L74475 74849
L74447 74774
L74532 74099
" />
<path d="M75249 74361
L75183 74886
" />
<path d="M74911 74361
L74860 74774
L74888 74849
L74958 74886
L75071 74886
L75150 74849
L75193 74811
" />
<path d="M75483 74886
L75961 74361
" />
<path d="M75549 74361
L75896 74886
" />
<path d="M76308 74886
L76238 74849
L76210 74774
L76294 74099
" />
<path d="M76599 74661
L76974 74661
" />
<path d="M76495 74886
L76856 74099
L77020 74886
" />
<path d="M77283 74886
L77349 74361
" />
<path d="M77330 74511
L77377 74436
L77419 74399
L77498 74361
L77573 74361
" />
<path d="M77770 74886
L77836 74361
" />
<path d="M77817 74511
L77864 74436
L77906 74399
L77986 74361
L78061 74361
" />
<path d="M78258 74886
L78323 74361
" />
<path d="M78305 74511
L78352 74436
L78394 74399
L78473 74361
L78548 74361
" />
<path d="M79083 74886
L79134 74474
L79106 74399
L79036 74361
L78886 74361
L78806 74399
" />
<path d="M79087 74849
L79008 74886
L78820 74886
L78750 74849
L78722 74774
L78731 74699
L78778 74624
L78858 74586
L79045 74586
L79125 74549
" />
<path d="M79448 74361
L79570 74886
" />
<path d="M79823 74361
L79570 74886
L79472 75074
L79430 75111
L79350 75149
" />
</g>
<g style="fill:#000000; fill-opacity:0.0; 
stroke:#000000; stroke-width:39.3701; stroke-opacity:1; 
stroke-linecap:round; stroke-linejoin:round;">
</g>
<g style="fill:#000000; fill-opacity:0.0; 
stroke:#000000; stroke-width:59.0551; stroke-opacity:1; 
stroke-linecap:round; stroke-linejoin:round;">
<path d="M70417 73070
L70220 73070
" />
<path d="M70220 73380
L70220 72789
L70501 72789
" />
<path d="M70726 73380
L70726 72986
" />
<path d="M70726 72789
L70698 72817
L70726 72845
L70754 72817
L70726 72789
L70726 72845
" />
<path d="M71091 73380
L71035 73352
L71007 73295
L71007 72789
" />
<path d="M71541 73352
L71485 73380
L71373 73380
L71316 73352
L71288 73295
L71288 73070
L71316 73014
L71373 72986
L71485 72986
L71541 73014
L71570 73070
L71570 73127
L71288 73183
" />
<path d="M71823 73323
L71851 73352
L71823 73380
L71795 73352
L71823 73323
L71823 73380
" />
<path d="M71823 73014
L71851 73042
L71823 73070
L71795 73042
L71823 73014
L71823 73070
" />
<path d="M72666 72789
L72779 72789
L72835 72817
L72891 72874
L72919 72986
L72919 73183
L72891 73295
L72835 73352
L72779 73380
L72666 73380
L72610 73352
L72554 73295
L72526 73183
L72526 72986
L72554 72874
L72610 72817
L72666 72789
" />
<path d="M73172 72986
L73172 73577
" />
<path d="M73172 73014
L73229 72986
L73341 72986
L73397 73014
L73426 73042
L73454 73099
L73454 73267
L73426 73323
L73397 73352
L73341 73380
L73229 73380
L73172 73352
" />
<path d="M73932 73352
L73876 73380
L73763 73380
L73707 73352
L73679 73295
L73679 73070
L73707 73014
L73763 72986
L73876 72986
L73932 73014
L73960 73070
L73960 73127
L73679 73183
" />
<path d="M74213 72986
L74213 73380
" />
<path d="M74213 73042
L74241 73014
L74297 72986
L74382 72986
L74438 73014
L74466 73070
L74466 73380
" />
<path d="M74747 73380
L74747 72789
L74888 72789
L74972 72817
L75028 72874
L75057 72930
L75085 73042
L75085 73127
L75057 73239
L75028 73295
L74972 73352
L74888 73380
L74747 73380
" />
<path d="M75338 73380
L75338 72986
" />
<path d="M75338 73099
L75366 73042
L75394 73014
L75450 72986
L75507 72986
" />
<path d="M75788 73380
L75732 73352
L75703 73323
L75675 73267
L75675 73099
L75703 73042
L75732 73014
L75788 72986
L75872 72986
L75928 73014
L75956 73042
L75985 73099
L75985 73267
L75956 73323
L75928 73352
L75872 73380
L75788 73380
" />
<path d="M76238 72986
L76238 73577
" />
<path d="M76238 73014
L76294 72986
L76406 72986
L76463 73014
L76491 73042
L76519 73099
L76519 73267
L76491 73323
L76463 73352
L76406 73380
L76294 73380
L76238 73352
" />
<path d="M76772 73155
L77222 73155
" />
<path d="M77700 73070
L77503 73070
" />
<path d="M77503 73380
L77503 72789
L77784 72789
" />
<path d="M78094 73380
L78037 73352
L78009 73295
L78009 72789
" />
<path d="M78572 72986
L78572 73380
" />
<path d="M78319 72986
L78319 73295
L78347 73352
L78403 73380
L78487 73380
L78544 73352
L78572 73323
" />
<path d="M78797 73380
L79106 72986
" />
<path d="M78797 72986
L79106 73380
" />
<path d="M79415 73380
L79359 73352
L79331 73295
L79331 72789
" />
<path d="M79612 73211
L79894 73211
" />
<path d="M79556 73380
L79753 72789
L79950 73380
" />
<path d="M80147 73380
L80147 72986
" />
<path d="M80147 73099
L80175 73042
L80203 73014
L80259 72986
L80315 72986
" />
<path d="M80512 73380
L80512 72986
" />
<path d="M80512 73099
L80540 73042
L80568 73014
L80625 72986
L80681 72986
" />
<path d="M81131 73380
L81131 73070
L81103 73014
L81046 72986
L80934 72986
L80878 73014
" />
<path d="M81131 73352
L81075 73380
L80934 73380
L80878 73352
L80850 73295
L80850 73239
L80878 73183
L80934 73155
L81075 73155
L81131 73127
" />
<path d="M81356 72986
L81496 73380
" />
<path d="M81637 72986
L81496 73380
L81440 73520
L81412 73548
L81356 73577
" />
<path d="M81862 73323
L81890 73352
L81862 73380
L81834 73352
L81862 73323
L81862 73380
" />
<path d="M82143 73380
L82143 72789
" />
<path d="M82199 73155
L82368 73380
" />
<path d="M82368 72986
L82143 73211
" />
<path d="M82621 73380
L82621 72986
" />
<path d="M82621 72789
L82593 72817
L82621 72845
L82649 72817
L82621 72789
L82621 72845
" />
<path d="M83156 73352
L83099 73380
L82987 73380
L82931 73352
L82903 73323
L82874 73267
L82874 73099
L82903 73042
L82931 73014
L82987 72986
L83099 72986
L83156 73014
" />
<path d="M83662 73380
L83662 73070
L83634 73014
L83577 72986
L83465 72986
L83409 73014
" />
<path d="M83662 73352
L83606 73380
L83465 73380
L83409 73352
L83381 73295
L83381 73239
L83409 73183
L83465 73155
L83606 73155
L83662 73127
" />
<path d="M84196 73380
L84196 72789
" />
<path d="M84196 73352
L84140 73380
L84027 73380
L83971 73352
L83943 73323
L83915 73267
L83915 73099
L83943 73042
L83971 73014
L84027 72986
L84140 72986
L84196 73014
" />
<path d="M84337 73436
L84787 73436
" />
<path d="M84927 72986
L84927 73577
" />
<path d="M84927 73014
L84983 72986
L85096 72986
L85152 73014
L85180 73042
L85208 73099
L85208 73267
L85180 73323
L85152 73352
L85096 73380
L84983 73380
L84927 73352
" />
<path d="M85715 73352
L85658 73380
L85546 73380
L85490 73352
L85462 73323
L85433 73267
L85433 73099
L85462 73042
L85490 73014
L85546 72986
L85658 72986
L85715 73014
" />
<path d="M85968 73380
L85968 72789
" />
<path d="M85968 73014
L86024 72986
L86136 72986
L86193 73014
L86221 73042
L86249 73099
L86249 73267
L86221 73323
L86193 73352
L86136 73380
L86024 73380
L85968 73352
" />
</g>
<g style="fill:#000000; fill-opacity:0.0; 
stroke:#000000; stroke-width:39.3701; stroke-opacity:1; 
stroke-linecap:round; stroke-linejoin:round;">
</g>
<g style="fill:#000000; fill-opacity:0.0; 
stroke:#000000; stroke-width:59.0551; stroke-opacity:1; 
stroke-linecap:round; stroke-linejoin:round;">
<path d="M69685 71459
L112205 71459
" />
</g>
<g style="fill:#000000; fill-opacity:0.0; 
stroke:#000000; stroke-width:39.3701; stroke-opacity:1; 
stroke-linecap:round; stroke-linejoin:round;">
</g>
<g style="fill:#000000; fill-opacity:0.0; 
stroke:#000000; stroke-width:59.0551; stroke-opacity:1; 
stroke-linecap:round; stroke-linejoin:round;">
<path d="M70192 72289
L70276 72317
L70417 72317
L70473 72289
L70501 72260
L70529 72204
L70529 72148
L70501 72092
L70473 72064
L70417 72036
L70304 72007
L70248 71979
L70220 71951
L70192 71895
L70192 71839
L70220 71782
L70248 71754
L70304 71726
L70445 71726
L70529 71754
" />
<path d="M70782 72317
L70782 71726
" />
<path d="M71035 72317
L71035 72007
L71007 71951
L70951 71923
L70867 71923
L70810 71951
L70782 71979
" />
<path d="M71541 72289
L71485 72317
L71373 72317
L71316 72289
L71288 72232
L71288 72007
L71316 71951
L71373 71923
L71485 71923
L71541 71951
L71570 72007
L71570 72064
L71288 72120
" />
<path d="M72048 72289
L71991 72317
L71879 72317
L71823 72289
L71795 72232
L71795 72007
L71823 71951
L71879 71923
L71991 71923
L72048 71951
L72076 72007
L72076 72064
L71795 72120
" />
<path d="M72244 71923
L72469 71923
" />
<path d="M72329 71726
L72329 72232
L72357 72289
L72413 72317
L72469 72317
" />
<path d="M72666 72260
L72694 72289
L72666 72317
L72638 72289
L72666 72260
L72666 72317
" />
<path d="M72666 71951
L72694 71979
L72666 72007
L72638 71979
L72666 71951
L72666 72007
" />
</g>
<g style="fill:#000000; fill-opacity:0.0; 
stroke:#000000; stroke-width:39.3701; stroke-opacity:1; 
stroke-linecap:round; stroke-linejoin:round;">
</g>
<g style="fill:#000000; fill-opacity:0.0; 
stroke:#000000; stroke-width:59.0551; stroke-opacity:1; 
stroke-linecap:round; stroke-linejoin:round;">
<path d="M77559 75396
L77559 76577
" />
</g>
<g style="fill:#000000; fill-opacity:0.0; 
stroke:#000000; stroke-width:39.3701; stroke-opacity:1; 
stroke-linecap:round; stroke-linejoin:round;">
</g>
<g style="fill:#000000; fill-opacity:0.0; 
stroke:#000000; stroke-width:59.0551; stroke-opacity:1; 
stroke-linecap:round; stroke-linejoin:round;">
<path d="M102756 75396
L102756 77955
" />
</g>
<g style="fill:#000000; fill-opacity:0.0; 
stroke:#000000; stroke-width:39.3701; stroke-opacity:1; 
stroke-linecap:round; stroke-linejoin:round;">
<path d="M24753 26771
L19685 26771
" />
<path d="M57610 26773
L59055 26773
" />
<path d="M57610 22135
L57610 26773
" />
<path d="M53968 22135
L57610 22135
" />
<path d="M47370 26769
L47370 26773
" />
<path d="M53968 26769
L47370 26769
" />
<path d="M53968 22135
L53968 26769
" />
<path d="M48159 24488
L46781 24488
" />
<path d="M46383.9 24094.5 A393.701 393.701 0.0 0 0 46777.6 24488.2 " />
<path d="M48159 24488
L48159 25188
" />
<path d="M48159 25188
L47757 25188
" />
<path d="M47372 26771
L47372 25586
" />
<path d="M47769.7 25189 A397.638 397.638 0.0 0 0 47372 25586.6 " />
<path d="M24752 25588.6 A397.638 397.638 0.0 0 0 24354.3 25190.9 " />
<path d="M24751 26773
L24751 25588
" />
<path d="M23964 25190
L24366 25190
" />
<path d="M23964 24490
L23964 25190
" />
<path d="M25342.5 24490.2 A393.701 393.701 0.0 0 0 25736.2 24096.5 " />
<path d="M23964 24490
L25342 24490
" />
<path d="M25736 22127
L25736 24092
" />
<path d="M36220.5 24173.2 A472.441 472.441 0.0 0 0 37165.4 24173.2 " />
<path d="M46385 22127
L46385 24112
" />
<path d="M37165 22127
L46385 22127
" />
<path d="M37165 24190
L37165 22127
" />
<path d="M36220 22127
L36220 24187
" />
<path d="M25736 22127
L36220 22127
" />
<path d="M19685 26771
L19685 53139
" />
<path d="M59055 26771
L59055 53139
" />
</g>
<g style="fill:#000000; fill-opacity:0.0; 
stroke:#000000; stroke-width:59.0551; stroke-opacity:1; 
stroke-linecap:round; stroke-linejoin:round;">
<path d="M45215 47588
L45440 47588
" />
<path d="M45327 47588
L45327 47195
L45365 47251
L45402 47288
L45440 47307
" />
<path d="M45083 47195
L44821 47195
L44990 47588
" />
<path d="M44465 47213
L44502 47195
L44558 47195
L44615 47213
L44652 47251
L44671 47288
L44690 47363
L44690 47420
L44671 47494
L44652 47532
L44615 47569
L44558 47588
L44521 47588
L44465 47569
L44446 47551
L44446 47420
L44521 47420
" />
<path d="M44277 47588
L44277 47195
L44052 47588
L44052 47195
" />
<path d="M43902 47195
L43640 47195
L43808 47588
" />
<path d="M43490 47588
L43490 47195
L43265 47588
L43265 47195
" />
<path d="M42852 47588
L42984 47401
" />
<path d="M43077 47588
L43077 47195
L42927 47195
L42890 47213
L42871 47232
L42852 47270
L42852 47326
L42871 47363
L42890 47382
L42927 47401
L43077 47401
" />
<path d="M42665 47588
L42590 47588
L42552 47569
L42534 47551
L42496 47494
L42477 47420
L42477 47270
L42496 47232
L42515 47213
L42552 47195
L42627 47195
L42665 47213
L42684 47232
L42702 47270
L42702 47363
L42684 47401
L42665 47420
L42627 47438
L42552 47438
L42515 47420
L42496 47401
L42477 47363
" />
<path d="M42365 47326
L42215 47326
" />
<path d="M42309 47588
L42309 47251
L42290 47213
L42252 47195
L42215 47195
" />
<path d="M42084 47588
L42084 47326
" />
<path d="M42084 47401
L42065 47363
L42046 47345
L42009 47326
L41971 47326
" />
<path d="M41840 47588
L41840 47195
L41746 47195
L41690 47213
L41653 47251
L41634 47288
L41615 47363
L41615 47420
L41634 47494
L41653 47532
L41690 47569
L41746 47588
L41840 47588
" />
<path d="M41278 47569
L41315 47588
L41390 47588
L41428 47569
L41446 47551
L41465 47513
L41465 47401
L41446 47363
L41428 47345
L41390 47326
L41315 47326
L41278 47345
" />
<path d="M40940 47326
L40940 47719
" />
<path d="M40940 47569
L40978 47588
L41053 47588
L41090 47569
L41109 47551
L41128 47513
L41128 47401
L41109 47363
L41090 47345
L41053 47326
L40978 47326
L40940 47345
" />
<path d="M40603 47569
L40640 47588
L40715 47588
L40753 47569
L40771 47532
L40771 47382
L40753 47345
L40715 47326
L40640 47326
L40603 47345
L40584 47382
L40584 47420
L40771 47457
" />
<path d="M40246 47326
L40246 47588
" />
<path d="M40415 47326
L40415 47532
L40396 47569
L40359 47588
L40303 47588
L40265 47569
L40246 47551
" />
<path d="M40059 47588
L40059 47195
L39909 47195
L39871 47213
L39853 47232
L39834 47270
L39834 47326
L39853 47363
L39871 47382
L39909 47401
L40059 47401
" />
<path d="M39665 47588
L39665 47195
" />
<path d="M39665 47382
L39440 47382
" />
<path d="M39440 47588
L39440 47195
" />
<path d="M39178 47401
L39178 47588
" />
<path d="M39309 47195
L39178 47401
L39047 47195
" />
<path d="M38915 47588
L38915 47195
" />
<path d="M38690 47588
L38859 47363
" />
<path d="M38690 47195
L38915 47420
" />
<path d="M38559 47326
L38465 47588
" />
<path d="M38372 47326
L38465 47588
L38503 47682
L38522 47701
L38559 47719
" />
<path d="M38222 47326
L38222 47719
" />
<path d="M38222 47345
L38184 47326
L38109 47326
L38072 47345
L38053 47363
L38034 47401
L38034 47513
L38053 47551
L38072 47569
L38109 47588
L38184 47588
L38222 47569
" />
<path d="M37697 47569
L37734 47588
L37809 47588
L37847 47569
L37865 47551
L37884 47513
L37884 47401
L37865 47363
L37847 47345
L37809 47326
L37734 47326
L37697 47345
" />
<path d="M37528 47588
L37528 47195
" />
<path d="M37528 47345
L37491 47326
L37416 47326
L37378 47345
L37359 47363
L37341 47401
L37341 47513
L37359 47551
L37378 47569
L37416 47588
L37491 47588
L37528 47569
" />
<path d="M37191 47232
L37172 47213
L37134 47195
L37041 47195
L37003 47213
L36984 47232
L36966 47270
L36966 47307
L36984 47363
L37209 47588
L36966 47588
" />
<path d="M36816 47569
L36778 47588
L36703 47588
L36666 47569
L36647 47532
L36647 47513
L36666 47476
L36703 47457
L36759 47457
L36797 47438
L36816 47401
L36816 47382
L36797 47345
L36759 47326
L36703 47326
L36666 47345
" />
<path d="M36478 47382
L36347 47382
" />
<path d="M36291 47588
L36478 47588
L36478 47195
L36291 47195
" />
<path d="M35953 47588
L35953 47195
" />
<path d="M35953 47569
L35991 47588
L36066 47588
L36103 47569
L36122 47551
L36141 47513
L36141 47401
L36122 47363
L36103 47345
L36066 47326
L35991 47326
L35953 47345
" />
<path d="M35803 47326
L35728 47588
L35653 47401
L35578 47588
L35503 47326
" />
<path d="M35166 47588
L35353 47588
L35353 47195
" />
<path d="M35035 47588
L35035 47195
L34941 47195
L34885 47213
L34847 47251
L34828 47288
L34810 47363
L34810 47420
L34828 47494
L34847 47532
L34885 47569
L34941 47588
L35035 47588
" />
<path d="M34641 47588
L34641 47326
" />
<path d="M34641 47401
L34622 47363
L34603 47345
L34566 47326
L34528 47326
" />
<path d="M34397 47382
L34266 47382
" />
<path d="M34210 47588
L34397 47588
L34397 47195
L34210 47195
" />
<path d="M33779 47626
L33816 47607
L33853 47569
L33910 47513
L33947 47494
L33985 47494
" />
<path d="M33966 47588
L34003 47569
L34041 47532
L34060 47457
L34060 47326
L34041 47251
L34003 47213
L33966 47195
L33891 47195
L33853 47213
L33816 47251
L33797 47326
L33797 47457
L33816 47532
L33853 47569
L33891 47588
L33966 47588
" />
</g>
<g style="fill:#000000; fill-opacity:0.0; 
stroke:#000000; stroke-width:39.3701; stroke-opacity:1; 
stroke-linecap:round; stroke-linejoin:round;">
<circle cx="40770.1" cy="35973.2" r="141.421" /> 
<circle cx="37970.1" cy="42373.2" r="141.421" /> 
</g>
<g style="fill:#000000; fill-opacity:0.0; 
stroke:#000000; stroke-width:157.48; stroke-opacity:1; 
stroke-linecap:round; stroke-linejoin:round;">
<path d="M43198 46749
L43291 46702
L43385 46609
L43526 46468
L43619 46421
L43713 46421
" />
<path d="M43666 46655
L43760 46609
L43854 46515
L43901 46327
L43901 45999
L43854 45812
L43760 45718
L43666 45671
L43479 45671
L43385 45718
L43291 45812
L43244 45999
L43244 46327
L43291 46515
L43385 46609
L43479 46655
L43666 46655
" />
<path d="M42401 45999
L42401 46655
" />
<path d="M42823 45999
L42823 46515
L42776 46609
L42682 46655
L42541 46655
L42448 46609
L42401 46562
" />
<path d="M41557 46609
L41651 46655
L41838 46655
L41932 46609
L41979 46515
L41979 46140
L41932 46046
L41838 45999
L41651 45999
L41557 46046
L41510 46140
L41510 46234
L41979 46327
" />
<path d="M40714 46609
L40807 46655
L40995 46655
L41089 46609
L41135 46515
L41135 46140
L41089 46046
L40995 45999
L40807 45999
L40714 46046
L40667 46140
L40667 46234
L41135 46327
" />
<path d="M40245 45999
L40245 46655
" />
<path d="M40245 46093
L40198 46046
L40104 45999
L39964 45999
L39870 46046
L39823 46140
L39823 46655
" />
<path d="M38276 46140
L38136 46187
L38089 46234
L38042 46327
L38042 46468
L38089 46562
L38136 46609
L38229 46655
L38604 46655
L38604 45671
L38276 45671
L38183 45718
L38136 45765
L38089 45859
L38089 45952
L38136 46046
L38183 46093
L38276 46140
L38604 46140
" />
<path d="M37620 46655
L37620 45999
" />
<path d="M37620 45671
L37667 45718
L37620 45765
L37573 45718
L37620 45671
L37620 45765
" />
<path d="M37292 45999
L36917 45999
" />
<path d="M37152 45671
L37152 46515
L37105 46609
L37011 46655
L36917 46655
" />
<path d="M36730 45999
L36355 45999
" />
<path d="M36589 45671
L36589 46515
L36542 46609
L36448 46655
L36355 46655
" />
<path d="M36027 46655
L36027 45999
" />
<path d="M36027 45671
L36074 45718
L36027 45765
L35980 45718
L36027 45671
L36027 45765
" />
<path d="M35183 46609
L35277 46655
L35464 46655
L35558 46609
L35605 46515
L35605 46140
L35558 46046
L35464 45999
L35277 45999
L35183 46046
L35136 46140
L35136 46234
L35605 46327
" />
</g>
<g style="fill:#000000; fill-opacity:0.0; 
stroke:#000000; stroke-width:59.0551; stroke-opacity:1; 
stroke-linecap:round; stroke-linejoin:round;">
<path d="M20812 32545
L20831 32527
L20849 32470
L20849 32433
L20831 32377
L20793 32339
L20756 32320
L20681 32302
L20624 32302
L20549 32320
L20512 32339
L20474 32377
L20456 32433
L20456 32470
L20474 32527
L20493 32545
" />
<path d="M20849 32770
L20831 32733
L20812 32714
L20774 32695
L20662 32695
L20624 32714
L20606 32733
L20587 32770
L20587 32827
L20606 32864
L20624 32883
L20662 32902
L20774 32902
L20812 32883
L20831 32864
L20849 32827
L20849 32770
" />
<path d="M20849 33070
L20587 33070
" />
<path d="M20624 33070
L20606 33089
L20587 33127
L20587 33183
L20606 33220
L20643 33239
L20849 33239
" />
<path d="M20643 33239
L20606 33258
L20587 33295
L20587 33352
L20606 33389
L20643 33408
L20849 33408
" />
<path d="M20849 33595
L20587 33595
" />
<path d="M20624 33595
L20606 33614
L20587 33652
L20587 33708
L20606 33745
L20643 33764
L20849 33764
" />
<path d="M20643 33764
L20606 33783
L20587 33820
L20587 33877
L20606 33914
L20643 33933
L20849 33933
" />
<path d="M20587 34289
L20849 34289
" />
<path d="M20587 34120
L20793 34120
L20831 34139
L20849 34176
L20849 34233
L20831 34270
L20812 34289
" />
<path d="M20587 34476
L20849 34476
" />
<path d="M20624 34476
L20606 34495
L20587 34533
L20587 34589
L20606 34626
L20643 34645
L20849 34645
" />
<path d="M20849 34833
L20587 34833
" />
<path d="M20456 34833
L20474 34814
L20493 34833
L20474 34851
L20456 34833
L20493 34833
" />
<path d="M20587 34964
L20587 35114
" />
<path d="M20456 35020
L20793 35020
L20831 35039
L20849 35076
L20849 35114
" />
<path d="M20587 35208
L20849 35301
" />
<path d="M20587 35395
L20849 35301
L20943 35264
L20962 35245
L20980 35208
" />
<path d="M20812 36070
L20831 36051
L20849 35995
L20849 35958
L20831 35901
L20793 35864
L20756 35845
L20681 35826
L20624 35826
L20549 35845
L20512 35864
L20474 35901
L20456 35958
L20456 35995
L20474 36051
L20493 36070
" />
<path d="M20849 36295
L20831 36257
L20812 36239
L20774 36220
L20662 36220
L20624 36239
L20606 36257
L20587 36295
L20587 36351
L20606 36389
L20624 36407
L20662 36426
L20774 36426
L20812 36407
L20831 36389
L20849 36351
L20849 36295
" />
<path d="M20849 36651
L20831 36614
L20812 36595
L20774 36576
L20662 36576
L20624 36595
L20606 36614
L20587 36651
L20587 36707
L20606 36745
L20624 36764
L20662 36782
L20774 36782
L20812 36764
L20831 36745
L20849 36707
L20849 36651
" />
<path d="M20849 36951
L20587 36951
" />
<path d="M20662 36951
L20624 36970
L20606 36989
L20587 37026
L20587 37064
" />
<path d="M20849 37364
L20456 37364
" />
<path d="M20831 37364
L20849 37326
L20849 37251
L20831 37214
L20812 37195
L20774 37176
L20662 37176
L20624 37195
L20606 37214
L20587 37251
L20587 37326
L20606 37364
" />
<path d="M20849 37551
L20587 37551
" />
<path d="M20456 37551
L20474 37532
L20493 37551
L20474 37570
L20456 37551
L20493 37551
" />
<path d="M20587 37739
L20849 37739
" />
<path d="M20624 37739
L20606 37757
L20587 37795
L20587 37851
L20606 37889
L20643 37907
L20849 37907
" />
<path d="M20849 38263
L20643 38263
L20606 38245
L20587 38207
L20587 38132
L20606 38095
" />
<path d="M20831 38263
L20849 38226
L20849 38132
L20831 38095
L20793 38076
L20756 38076
L20718 38095
L20699 38132
L20699 38226
L20681 38263
" />
<path d="M20587 38395
L20587 38545
" />
<path d="M20456 38451
L20793 38451
L20831 38470
L20849 38507
L20849 38545
" />
<path d="M20849 38732
L20831 38695
L20812 38676
L20774 38657
L20662 38657
L20624 38676
L20606 38695
L20587 38732
L20587 38788
L20606 38826
L20624 38845
L20662 38863
L20774 38863
L20812 38845
L20831 38826
L20849 38788
L20849 38732
" />
<path d="M20849 39032
L20587 39032
" />
<path d="M20662 39032
L20624 39051
L20606 39070
L20587 39107
L20587 39145
" />
<path d="M20812 39276
L20831 39295
L20849 39276
L20831 39257
L20812 39276
L20849 39276
" />
<path d="M20606 39276
L20624 39295
L20643 39276
L20624 39257
L20606 39276
L20643 39276
" />
<path d="M20643 39763
L20643 39895
" />
<path d="M20849 39951
L20849 39763
L20456 39763
L20456 39951
" />
<path d="M20587 40288
L20849 40288
" />
<path d="M20587 40119
L20793 40119
L20831 40138
L20849 40176
L20849 40232
L20831 40269
L20812 40288
" />
<path d="M20587 40644
L20905 40644
L20943 40626
L20962 40607
L20980 40569
L20980 40513
L20962 40476
" />
<path d="M20831 40644
L20849 40607
L20849 40532
L20831 40494
L20812 40476
L20774 40457
L20662 40457
L20624 40476
L20606 40494
L20587 40532
L20587 40607
L20606 40644
" />
<path d="M20831 40982
L20849 40944
L20849 40869
L20831 40832
L20793 40813
L20643 40813
L20606 40832
L20587 40869
L20587 40944
L20606 40982
L20643 41001
L20681 41001
L20718 40813
" />
<path d="M20587 41169
L20849 41169
" />
<path d="M20624 41169
L20606 41188
L20587 41226
L20587 41282
L20606 41319
L20643 41338
L20849 41338
" />
<path d="M20849 41526
L20587 41526
" />
<path d="M20456 41526
L20474 41507
L20493 41526
L20474 41544
L20456 41526
L20493 41526
" />
<path d="M20849 41769
L20831 41732
L20812 41713
L20774 41694
L20662 41694
L20624 41713
L20606 41732
L20587 41769
L20587 41826
L20606 41863
L20624 41882
L20662 41901
L20774 41901
L20812 41882
L20831 41863
L20849 41826
L20849 41769
" />
<path d="M20643 42500
L20662 42557
L20681 42575
L20718 42594
L20774 42594
L20812 42575
L20831 42557
L20849 42519
L20849 42369
L20456 42369
L20456 42500
L20474 42538
L20493 42557
L20531 42575
L20568 42575
L20606 42557
L20624 42538
L20643 42500
L20643 42369
" />
<path d="M20849 42932
L20643 42932
L20606 42913
L20587 42875
L20587 42800
L20606 42763
" />
<path d="M20831 42932
L20849 42894
L20849 42800
L20831 42763
L20793 42744
L20756 42744
L20718 42763
L20699 42800
L20699 42894
L20681 42932
" />
<path d="M20587 43063
L20587 43213
" />
<path d="M20456 43119
L20793 43119
L20831 43138
L20849 43175
L20849 43213
" />
<path d="M20587 43288
L20587 43438
" />
<path d="M20456 43344
L20793 43344
L20831 43363
L20849 43400
L20849 43438
" />
<path d="M20849 43738
L20643 43738
L20606 43719
L20587 43682
L20587 43607
L20606 43569
" />
<path d="M20831 43738
L20849 43700
L20849 43607
L20831 43569
L20793 43550
L20756 43550
L20718 43569
L20699 43607
L20699 43700
L20681 43738
" />
<path d="M20587 44094
L20905 44094
L20943 44075
L20962 44056
L20980 44019
L20980 43963
L20962 43925
" />
<path d="M20831 44094
L20849 44056
L20849 43982
L20831 43944
L20812 43925
L20774 43907
L20662 43907
L20624 43925
L20606 43944
L20587 43982
L20587 44056
L20606 44094
" />
<path d="M20849 44338
L20831 44300
L20793 44281
L20456 44281
" />
<path d="M20849 44488
L20587 44488
" />
<path d="M20456 44488
L20474 44469
L20493 44488
L20474 44506
L20456 44488
L20493 44488
" />
<path d="M20849 44844
L20643 44844
L20606 44825
L20587 44788
L20587 44713
L20606 44675
" />
<path d="M20831 44844
L20849 44806
L20849 44713
L20831 44675
L20793 44656
L20756 44656
L20718 44675
L20699 44713
L20699 44806
L20681 44844
" />
</g>
<g style="fill:#000000; fill-opacity:0.0; 
stroke:#000000; stroke-width:78.7402; stroke-opacity:1; 
stroke-linecap:round; stroke-linejoin:round;">
<path d="M56929 31793
L56967 31774
L57023 31774
L57079 31793
L57117 31830
L57136 31868
L57154 31943
L57154 31999
L57136 32074
L57117 32112
L57079 32149
L57023 32168
L56986 32168
L56929 32149
L56911 32130
L56911 31999
L56986 31999
" />
<path d="M56742 32168
L56742 31774
L56517 32168
L56517 31774
" />
<path d="M56329 32168
L56329 31774
L56236 31774
L56179 31793
L56142 31830
L56123 31868
L56104 31943
L56104 31999
L56123 32074
L56142 32112
L56179 32149
L56236 32168
L56329 32168
" />
</g>
<g style="fill:#000000; fill-opacity:0.0; 
stroke:#000000; stroke-width:118.11; stroke-opacity:1; 
stroke-linecap:round; stroke-linejoin:round;">
<path d="M50592 50267
L50480 50660
L50367 50379
L50255 50660
L50142 50267
" />
<path d="M49974 50267
L49861 50660
L49749 50379
L49636 50660
L49524 50267
" />
<path d="M49355 50267
L49243 50660
L49130 50379
L49018 50660
L48905 50267
" />
<path d="M48680 50604
L48652 50632
L48680 50660
L48708 50632
L48680 50604
L48680 50660
" />
<path d="M48399 50660
L48399 50070
" />
<path d="M48399 50295
L48343 50267
L48230 50267
L48174 50295
L48146 50323
L48118 50379
L48118 50548
L48146 50604
L48174 50632
L48230 50660
L48343 50660
L48399 50632
" />
<path d="M47865 50660
L47865 50267
" />
<path d="M47865 50070
L47893 50098
L47865 50126
L47837 50098
L47865 50070
L47865 50126
" />
<path d="M47499 50660
L47555 50632
L47583 50604
L47612 50548
L47612 50379
L47583 50323
L47555 50295
L47499 50267
L47415 50267
L47358 50295
L47330 50323
L47302 50379
L47302 50548
L47330 50604
L47358 50632
L47415 50660
L47499 50660
" />
<path d="M47133 50267
L46908 50267
" />
<path d="M47049 50660
L47049 50154
L47021 50098
L46965 50070
L46908 50070
" />
<path d="M46627 50660
L46684 50632
L46712 50576
L46712 50070
" />
<path d="M46149 50267
L46149 50660
" />
<path d="M46402 50267
L46402 50576
L46374 50632
L46318 50660
L46234 50660
L46177 50632
L46149 50604
" />
<path d="M45924 50660
L45615 50267
" />
<path d="M45924 50267
L45615 50660
" />
<path d="M45390 50604
L45362 50632
L45390 50660
L45418 50632
L45390 50604
L45390 50660
" />
<path d="M44884 50632
L44940 50660
L45052 50660
L45109 50632
L45137 50576
L45137 50351
L45109 50295
L45052 50267
L44940 50267
L44884 50295
L44856 50351
L44856 50407
L45137 50464
" />
<path d="M44349 50267
L44349 50660
" />
<path d="M44603 50267
L44603 50576
L44574 50632
L44518 50660
L44434 50660
L44378 50632
L44349 50604
" />
<path d="M50986 49170
L51183 49170
" />
<path d="M51183 49479
L51183 48889
L50902 48889
" />
<path d="M50592 49479
L50649 49451
L50677 49395
L50677 48889
" />
<path d="M50114 49086
L50114 49479
" />
<path d="M50367 49086
L50367 49395
L50339 49451
L50283 49479
L50199 49479
L50142 49451
L50114 49423
" />
<path d="M49889 49479
L49580 49086
" />
<path d="M49889 49086
L49580 49479
" />
<path d="M49271 49479
L49327 49451
L49355 49395
L49355 48889
" />
<path d="M49046 49254
L48596 49254
" />
<path d="M48399 48889
L48061 48889
" />
<path d="M48230 49479
L48230 48889
" />
<path d="M47640 49451
L47696 49479
L47808 49479
L47865 49451
L47893 49395
L47893 49170
L47865 49114
L47808 49086
L47696 49086
L47640 49114
L47612 49170
L47612 49226
L47893 49282
" />
<path d="M47105 49451
L47162 49479
L47274 49479
L47330 49451
L47358 49423
L47387 49367
L47387 49198
L47358 49142
L47330 49114
L47274 49086
L47162 49086
L47105 49114
" />
<path d="M46852 49479
L46852 48889
" />
<path d="M46599 49479
L46599 49170
L46627 49114
L46684 49086
L46768 49086
L46824 49114
L46852 49142
" />
<path d="M46318 49086
L46318 49479
" />
<path d="M46318 49142
L46290 49114
L46234 49086
L46149 49086
L46093 49114
L46065 49170
L46065 49479
" />
<path d="M45699 49479
L45756 49451
L45784 49423
L45812 49367
L45812 49198
L45784 49142
L45756 49114
L45699 49086
L45615 49086
L45559 49114
L45531 49142
L45502 49198
L45502 49367
L45531 49423
L45559 49451
L45615 49479
L45699 49479
" />
<path d="M45165 49479
L45221 49451
L45249 49395
L45249 48889
" />
<path d="M44856 49479
L44912 49451
L44940 49423
L44968 49367
L44968 49198
L44940 49142
L44912 49114
L44856 49086
L44771 49086
L44715 49114
L44687 49142
L44659 49198
L44659 49367
L44687 49423
L44715 49451
L44771 49479
L44856 49479
" />
<path d="M44153 49086
L44153 49564
L44181 49620
L44209 49648
L44265 49676
L44349 49676
L44406 49648
" />
<path d="M44153 49451
L44209 49479
L44321 49479
L44378 49451
L44406 49423
L44434 49367
L44434 49198
L44406 49142
L44378 49114
L44321 49086
L44209 49086
L44153 49114
" />
<path d="M43928 49086
L43787 49479
" />
<path d="M43646 49086
L43787 49479
L43843 49620
L43871 49648
L43928 49676
" />
<path d="M38472 49311
L38191 49311
" />
<path d="M38528 49479
L38331 48889
L38135 49479
" />
<path d="M37488 49479
L37488 48889
" />
<path d="M37488 49170
L37150 49170
" />
<path d="M37150 49479
L37150 48889
" />
<path d="M36616 49479
L36616 49170
L36644 49114
L36700 49086
L36813 49086
L36869 49114
" />
<path d="M36616 49451
L36672 49479
L36813 49479
L36869 49451
L36897 49395
L36897 49339
L36869 49282
L36813 49254
L36672 49254
L36616 49226
" />
<path d="M36082 49451
L36138 49479
L36250 49479
L36307 49451
L36335 49423
L36363 49367
L36363 49198
L36335 49142
L36307 49114
L36250 49086
L36138 49086
L36082 49114
" />
<path d="M35829 49479
L35829 48889
" />
<path d="M35772 49254
L35604 49479
" />
<path d="M35604 49086
L35829 49311
" />
<path d="M35435 49086
L35210 49086
" />
<path d="M35351 48889
L35351 49395
L35322 49451
L35266 49479
L35210 49479
" />
<path d="M34788 49451
L34844 49479
L34957 49479
L35013 49451
L35041 49395
L35041 49170
L35013 49114
L34957 49086
L34844 49086
L34788 49114
L34760 49170
L34760 49226
L35041 49282
" />
<path d="M34507 49479
L34507 49086
" />
<path d="M34507 49198
L34479 49142
L34451 49114
L34394 49086
L34338 49086
" />
<path d="M34141 49479
L34141 49086
" />
<path d="M34141 48889
L34169 48917
L34141 48945
L34113 48917
L34141 48889
L34141 48945
" />
<path d="M33607 49479
L33607 49170
L33635 49114
L33691 49086
L33804 49086
L33860 49114
" />
<path d="M33607 49451
L33663 49479
L33804 49479
L33860 49451
L33888 49395
L33888 49339
L33860 49282
L33804 49254
L33663 49254
L33607 49226
" />
<path d="M32876 49479
L32876 48889
L32538 49479
L32538 48889
" />
<path d="M32032 49451
L32088 49479
L32201 49479
L32257 49451
L32285 49395
L32285 49170
L32257 49114
L32201 49086
L32088 49086
L32032 49114
L32004 49170
L32004 49226
L32285 49282
" />
<path d="M31835 49086
L31610 49086
" />
<path d="M31751 48889
L31751 49395
L31723 49451
L31667 49479
L31610 49479
" />
<path d="M31470 49086
L31357 49479
L31245 49198
L31132 49479
L31020 49086
" />
<path d="M30711 49479
L30767 49451
L30795 49423
L30823 49367
L30823 49198
L30795 49142
L30767 49114
L30711 49086
L30626 49086
L30570 49114
L30542 49142
L30514 49198
L30514 49367
L30542 49423
L30570 49451
L30626 49479
L30711 49479
" />
<path d="M30261 49479
L30261 49086
" />
<path d="M30261 49198
L30232 49142
L30204 49114
L30148 49086
L30092 49086
" />
<path d="M29895 49479
L29895 48889
" />
<path d="M29839 49254
L29670 49479
" />
<path d="M29670 49086
L29895 49311
" />
<path d="M28967 49479
L28967 48889
L28742 48889
L28686 48917
L28658 48945
L28630 49001
L28630 49086
L28658 49142
L28686 49170
L28742 49198
L28967 49198
" />
<path d="M28376 49479
L28376 49086
" />
<path d="M28376 49198
L28348 49142
L28320 49114
L28264 49086
L28208 49086
" />
<path d="M27926 49479
L27983 49451
L28011 49423
L28039 49367
L28039 49198
L28011 49142
L27983 49114
L27926 49086
L27842 49086
L27786 49114
L27758 49142
L27730 49198
L27730 49367
L27758 49423
L27786 49451
L27842 49479
L27926 49479
" />
<path d="M27477 49086
L27477 49592
L27505 49648
L27561 49676
L27589 49676
" />
<path d="M27477 48889
L27505 48917
L27477 48945
L27448 48917
L27477 48889
L27477 48945
" />
<path d="M26970 49451
L27027 49479
L27139 49479
L27195 49451
L27223 49395
L27223 49170
L27195 49114
L27139 49086
L27027 49086
L26970 49114
L26942 49170
L26942 49226
L27223 49282
" />
<path d="M26436 49451
L26492 49479
L26605 49479
L26661 49451
L26689 49423
L26717 49367
L26717 49198
L26689 49142
L26661 49114
L26605 49086
L26492 49086
L26436 49114
" />
<path d="M26267 49086
L26042 49086
" />
<path d="M26183 48889
L26183 49395
L26155 49451
L26099 49479
L26042 49479
" />
<path d="M37361 50267
L37249 50660
L37136 50379
L37024 50660
L36911 50267
" />
<path d="M36743 50267
L36630 50660
L36518 50379
L36405 50660
L36293 50267
" />
<path d="M36124 50267
L36011 50660
L35899 50379
L35786 50660
L35674 50267
" />
<path d="M35449 50604
L35421 50632
L35449 50660
L35477 50632
L35449 50604
L35449 50660
" />
<path d="M34915 50267
L34915 50745
L34943 50801
L34971 50829
L35027 50857
L35112 50857
L35168 50829
" />
<path d="M34915 50632
L34971 50660
L35083 50660
L35140 50632
L35168 50604
L35196 50548
L35196 50379
L35168 50323
L35140 50295
L35083 50267
L34971 50267
L34915 50295
" />
<path d="M34380 50660
L34380 50351
L34408 50295
L34465 50267
L34577 50267
L34633 50295
" />
<path d="M34380 50632
L34437 50660
L34577 50660
L34633 50632
L34662 50576
L34662 50520
L34633 50464
L34577 50435
L34437 50435
L34380 50407
" />
<path d="M33846 50267
L33846 50660
" />
<path d="M34099 50267
L34099 50576
L34071 50632
L34015 50660
L33930 50660
L33874 50632
L33846 50604
" />
<path d="M33312 50660
L33312 50070
" />
<path d="M33312 50632
L33368 50660
L33480 50660
L33537 50632
L33565 50604
L33593 50548
L33593 50379
L33565 50323
L33537 50295
L33480 50267
L33368 50267
L33312 50295
" />
<path d="M33031 50660
L33031 50267
" />
<path d="M33031 50070
L33059 50098
L33031 50126
L33002 50098
L33031 50070
L33031 50126
" />
<path d="M32749 50604
L32721 50632
L32749 50660
L32777 50632
L32749 50604
L32749 50660
" />
<path d="M32215 50632
L32271 50660
L32384 50660
L32440 50632
L32468 50604
L32496 50548
L32496 50379
L32468 50323
L32440 50295
L32384 50267
L32271 50267
L32215 50295
" />
<path d="M31962 50660
L31962 50070
" />
<path d="M31709 50660
L31709 50351
L31737 50295
L31793 50267
L31878 50267
L31934 50295
L31962 50323
" />
<path d="M31006 50042
L31512 50801
" />
<path d="M30696 50070
L30584 50070
L30528 50098
L30471 50154
L30443 50267
L30443 50464
L30471 50576
L30528 50632
L30584 50660
L30696 50660
L30753 50632
L30809 50576
L30837 50464
L30837 50267
L30809 50154
L30753 50098
L30696 50070
" />
<path d="M30190 50267
L30190 50857
" />
<path d="M30190 50295
L30134 50267
L30022 50267
L29965 50295
L29937 50323
L29909 50379
L29909 50548
L29937 50604
L29965 50632
L30022 50660
L30134 50660
L30190 50632
" />
<path d="M29431 50632
L29487 50660
L29600 50660
L29656 50632
L29684 50576
L29684 50351
L29656 50295
L29600 50267
L29487 50267
L29431 50295
L29403 50351
L29403 50407
L29684 50464
" />
<path d="M29150 50267
L29150 50660
" />
<path d="M29150 50323
L29122 50295
L29065 50267
L28981 50267
L28925 50295
L28897 50351
L28897 50660
" />
<path d="M28615 50660
L28615 50070
L28475 50070
L28391 50098
L28334 50154
L28306 50210
L28278 50323
L28278 50407
L28306 50520
L28334 50576
L28391 50632
L28475 50660
L28615 50660
" />
<path d="M28025 50660
L28025 50267
" />
<path d="M28025 50379
L27997 50323
L27969 50295
L27912 50267
L27856 50267
" />
<path d="M27575 50660
L27631 50632
L27659 50604
L27687 50548
L27687 50379
L27659 50323
L27631 50295
L27575 50267
L27491 50267
L27434 50295
L27406 50323
L27378 50379
L27378 50548
L27406 50604
L27434 50632
L27491 50660
L27575 50660
" />
<path d="M27125 50267
L27125 50857
" />
<path d="M27125 50295
L27069 50267
L26956 50267
L26900 50295
L26872 50323
L26844 50379
L26844 50548
L26872 50604
L26900 50632
L26956 50660
L27069 50660
L27125 50632
" />
</g>
<g style="fill:#000000; fill-opacity:0.0; 
stroke:#000000; stroke-width:78.7402; stroke-opacity:1; 
stroke-linecap:round; stroke-linejoin:round;">
<path d="M33003 30798
L32872 31191
L32741 30798
" />
<path d="M32403 31191
L32628 31191
" />
<path d="M32516 31191
L32516 30798
L32553 30854
L32591 30891
L32628 30910
" />
<path d="M32235 31154
L32216 31173
L32235 31191
L32253 31173
L32235 31154
L32235 31191
" />
<path d="M31972 30798
L31935 30798
L31897 30816
L31878 30835
L31860 30873
L31841 30948
L31841 31041
L31860 31116
L31878 31154
L31897 31173
L31935 31191
L31972 31191
L32010 31173
L32028 31154
L32047 31116
L32066 31041
L32066 30948
L32047 30873
L32028 30835
L32010 30816
L31972 30798
" />
<path d="M31654 31173
L31654 31191
L31672 31229
L31691 31248
" />
<path d="M31204 30835
L31185 30816
L31147 30798
L31054 30798
L31016 30816
L30997 30835
L30979 30873
L30979 30910
L30997 30966
L31222 31191
L30979 31191
" />
<path d="M30735 30798
L30697 30798
L30660 30816
L30641 30835
L30622 30873
L30604 30948
L30604 31041
L30622 31116
L30641 31154
L30660 31173
L30697 31191
L30735 31191
L30772 31173
L30791 31154
L30810 31116
L30829 31041
L30829 30948
L30810 30873
L30791 30835
L30772 30816
L30735 30798
" />
<path d="M30229 31191
L30454 31191
" />
<path d="M30341 31191
L30341 30798
L30379 30854
L30416 30891
L30454 30910
" />
<path d="M29891 30798
L29966 30798
L30004 30816
L30022 30835
L30060 30891
L30079 30966
L30079 31116
L30060 31154
L30041 31173
L30004 31191
L29929 31191
L29891 31173
L29872 31154
L29854 31116
L29854 31023
L29872 30985
L29891 30966
L29929 30948
L30004 30948
L30041 30966
L30060 30985
L30079 31023
" />
</g>
<g style="fill:#000000; fill-opacity:0.0; 
stroke:#000000; stroke-width:236.22; stroke-opacity:1; 
stroke-linecap:round; stroke-linejoin:round;">
<path d="M32619 27315
L32394 27315
L32282 27372
L32169 27484
L32113 27709
L32113 28103
L32169 28328
L32282 28440
L32394 28496
L32619 28496
L32732 28440
L32844 28328
L32900 28103
L32900 27709
L32844 27484
L32732 27372
L32619 27315
" />
<path d="M31607 27709
L31607 28890
" />
<path d="M31607 27765
L31494 27709
L31269 27709
L31157 27765
L31100 27821
L31044 27934
L31044 28271
L31100 28384
L31157 28440
L31269 28496
L31494 28496
L31607 28440
" />
<path d="M30088 28440
L30201 28496
L30426 28496
L30538 28440
L30594 28328
L30594 27878
L30538 27765
L30426 27709
L30201 27709
L30088 27765
L30032 27878
L30032 27990
L30594 28103
" />
<path d="M29526 27709
L29526 28496
" />
<path d="M29526 27821
L29469 27765
L29357 27709
L29188 27709
L29076 27765
L29019 27878
L29019 28496
" />
<path d="M28457 28496
L28457 27315
L28176 27315
L28007 27372
L27895 27484
L27838 27597
L27782 27821
L27782 27990
L27838 28215
L27895 28328
L28007 28440
L28176 28496
L28457 28496
" />
<path d="M27276 28496
L27276 27709
" />
<path d="M27276 27934
L27220 27821
L27163 27765
L27051 27709
L26938 27709
" />
<path d="M26376 28496
L26489 28440
L26545 28384
L26601 28271
L26601 27934
L26545 27821
L26489 27765
L26376 27709
L26207 27709
L26095 27765
L26039 27821
L25982 27934
L25982 28271
L26039 28384
L26095 28440
L26207 28496
L26376 28496
" />
<path d="M25476 27709
L25476 28890
" />
<path d="M25476 27765
L25364 27709
L25139 27709
L25026 27765
L24970 27821
L24914 27934
L24914 28271
L24970 28384
L25026 28440
L25139 28496
L25364 28496
L25476 28440
" />
<path d="M32591 29767
L32985 29767
" />
<path d="M32985 30386
L32985 29205
L32422 29205
" />
<path d="M31803 30386
L31916 30330
L31972 30217
L31972 29205
" />
<path d="M30847 29599
L30847 30386
" />
<path d="M31354 29599
L31354 30217
L31297 30330
L31185 30386
L31016 30386
L30904 30330
L30847 30274
" />
<path d="M30397 30386
L29779 29599
" />
<path d="M30397 29599
L29779 30386
" />
<path d="M29160 30386
L29273 30330
L29329 30217
L29329 29205
" />
<path d="M28766 30049
L28204 30049
" />
<path d="M28879 30386
L28485 29205
L28091 30386
" />
<path d="M27698 30386
L27698 29599
" />
<path d="M27698 29824
L27642 29711
L27585 29655
L27473 29599
L27360 29599
" />
<path d="M26967 30386
L26967 29599
" />
<path d="M26967 29824
L26910 29711
L26854 29655
L26742 29599
L26629 29599
" />
<path d="M25729 30386
L25729 29767
L25785 29655
L25898 29599
L26123 29599
L26235 29655
" />
<path d="M25729 30330
L25842 30386
L26123 30386
L26235 30330
L26292 30217
L26292 30105
L26235 29992
L26123 29936
L25842 29936
L25729 29880
" />
<path d="M25279 29599
L24998 30386
" />
<path d="M24717 29599
L24998 30386
L25111 30667
L25167 30724
L25279 30780
" />
</g>
<g style="fill:#000000; fill-opacity:0.0; 
stroke:#000000; stroke-width:118.11; stroke-opacity:1; 
stroke-linecap:round; stroke-linejoin:round;">
<path d="M43834 28548
L43834 27958
L43693 27958
L43609 27986
L43552 28042
L43524 28098
L43496 28211
L43496 28295
L43524 28408
L43552 28464
L43609 28520
L43693 28548
L43834 28548
" />
<path d="M43243 28548
L43243 27958
" />
<path d="M42652 27986
L42709 27958
L42793 27958
L42877 27986
L42934 28042
L42962 28098
L42990 28211
L42990 28295
L42962 28408
L42934 28464
L42877 28520
L42793 28548
L42737 28548
L42652 28520
L42624 28492
L42624 28295
L42737 28295
" />
<path d="M42371 28548
L42371 27958
" />
<path d="M42174 27958
L41837 27958
" />
<path d="M42006 28548
L42006 27958
" />
<path d="M41668 28379
L41387 28379
" />
<path d="M41724 28548
L41528 27958
L41331 28548
" />
<path d="M40853 28548
L41134 28548
L41134 27958
" />
<path d="M40009 28239
L39925 28267
L39897 28295
L39868 28351
L39868 28436
L39897 28492
L39925 28520
L39981 28548
L40206 28548
L40206 27958
L40009 27958
L39953 27986
L39925 28014
L39897 28070
L39897 28126
L39925 28183
L39953 28211
L40009 28239
L40206 28239
" />
<path d="M39615 28548
L39615 27958
" />
<path d="M39222 27958
L39109 27958
L39053 27986
L38997 28042
L38969 28154
L38969 28351
L38997 28464
L39053 28520
L39109 28548
L39222 28548
L39278 28520
L39334 28464
L39362 28351
L39362 28154
L39334 28042
L39278 27986
L39222 27958
" />
<path d="M38434 28548
L38715 28548
L38715 27958
" />
<path d="M38125 27958
L38012 27958
L37956 27986
L37900 28042
L37872 28154
L37872 28351
L37900 28464
L37956 28520
L38012 28548
L38125 28548
L38181 28520
L38237 28464
L38266 28351
L38266 28154
L38237 28042
L38181 27986
L38125 27958
" />
<path d="M37309 27986
L37366 27958
L37450 27958
L37534 27986
L37591 28042
L37619 28098
L37647 28211
L37647 28295
L37619 28408
L37591 28464
L37534 28520
L37450 28548
L37394 28548
L37309 28520
L37281 28492
L37281 28295
L37394 28295
" />
<path d="M36916 28267
L36916 28548
" />
<path d="M37113 27958
L36916 28267
L36719 27958
" />
</g>
<g style="fill:#000000; fill-opacity:0.0; 
stroke:#000000; stroke-width:39.3701; stroke-opacity:1; 
stroke-linecap:round; stroke-linejoin:round;">
<path d="M20988 53510
L19681 53144
" />
<path d="M22256 53833
L20988 53510
" />
<path d="M24296 54305
L22256 53833
" />
<path d="M26626 54770
L24296 54305
" />
<path d="M28697 55116
L26626 54770
" />
<path d="M30784 55400
L28697 55116
" />
<path d="M32894 55620
L30784 55400
" />
<path d="M34937 55781
L32894 55620
" />
<path d="M36567 55864
L34937 55781
" />
<path d="M38819 55907
L36567 55864
" />
<path d="M40386 55907
L38819 55907
" />
<path d="M41815 55872
L40386 55907
" />
<path d="M43882 55770
L41815 55872
" />
<path d="M45607 55644
L43882 55770
" />
<path d="M47622 55431
L45607 55644
" />
<path d="M49197 55234
L47622 55431
" />
<path d="M51193 54927
L49197 55234
" />
<path d="M53288 54541
L51193 54927
" />
<path d="M54823 54218
L53288 54541
" />
<path d="M56284 53880
L54823 54218
" />
<path d="M57953 53451
L56284 53880
" />
<path d="M59051 53144
L57953 53451
" />
</g>
<g style="fill:#000000; fill-opacity:0.0; 
stroke:#000000; stroke-width:59.0551; stroke-opacity:1; 
stroke-linecap:round; stroke-linejoin:round;">
<path d="M40497 54507
L40309 54376
" />
<path d="M40497 54282
L40103 54282
L40103 54432
L40122 54470
L40140 54488
L40178 54507
L40234 54507
L40272 54488
L40290 54470
L40309 54432
L40309 54282
" />
<path d="M40497 54882
L40497 54657
" />
<path d="M40497 54770
L40103 54770
L40159 54732
L40197 54695
L40215 54657
" />
<path d="M40272 55107
L40253 55069
L40234 55051
L40197 55032
L40178 55032
L40140 55051
L40122 55069
L40103 55107
L40103 55182
L40122 55219
L40140 55238
L40178 55257
L40197 55257
L40234 55238
L40253 55219
L40272 55182
L40272 55107
L40290 55069
L40309 55051
L40347 55032
L40422 55032
L40459 55051
L40478 55069
L40497 55107
L40497 55182
L40478 55219
L40459 55238
L40422 55257
L40347 55257
L40309 55238
L40290 55219
L40272 55182
" />
<path d="M39547 54457
L39359 54326
" />
<path d="M39547 54232
L39153 54232
L39153 54382
L39172 54420
L39190 54438
L39228 54457
L39284 54457
L39322 54438
L39340 54420
L39359 54382
L39359 54232
" />
<path d="M39547 54832
L39547 54607
" />
<path d="M39547 54720
L39153 54720
L39209 54682
L39247 54645
L39265 54607
" />
<path d="M39547 55019
L39547 55094
L39528 55132
L39509 55151
L39453 55188
L39378 55207
L39228 55207
L39190 55188
L39172 55169
L39153 55132
L39153 55057
L39172 55019
L39190 55001
L39228 54982
L39322 54982
L39359 55001
L39378 55019
L39397 55057
L39397 55132
L39378 55169
L39359 55188
L39322 55207
" />
<path d="M37670 53857
L37482 53726
" />
<path d="M37670 53632
L37276 53632
L37276 53782
L37295 53820
L37314 53838
L37351 53857
L37407 53857
L37445 53838
L37464 53820
L37482 53782
L37482 53632
" />
<path d="M37314 54007
L37295 54026
L37276 54063
L37276 54157
L37295 54194
L37314 54213
L37351 54232
L37389 54232
L37445 54213
L37670 53988
L37670 54232
" />
<path d="M37276 54476
L37276 54513
L37295 54551
L37314 54569
L37351 54588
L37426 54607
L37520 54607
L37595 54588
L37632 54569
L37651 54551
L37670 54513
L37670 54476
L37651 54438
L37632 54419
L37595 54401
L37520 54382
L37426 54382
L37351 54401
L37314 54419
L37295 54438
L37276 54476
" />
<path d="M37670 52507
L37482 52376
" />
<path d="M37670 52282
L37276 52282
L37276 52432
L37295 52470
L37314 52488
L37351 52507
L37407 52507
L37445 52488
L37464 52470
L37482 52432
L37482 52282
" />
<path d="M37314 52657
L37295 52676
L37276 52713
L37276 52807
L37295 52844
L37314 52863
L37351 52882
L37389 52882
L37445 52863
L37670 52638
L37670 52882
" />
<path d="M37670 53257
L37670 53032
" />
<path d="M37670 53144
L37276 53144
L37332 53107
L37370 53069
L37389 53032
" />
<path d="M39974 53274
L39974 53746
" />
<path d="M40663 53746
L40663 53274
" />
<path d="M39713 53746
L39713 53274
" />
<path d="M39024 53274
L39024 53746
" />
<path d="M38663 54346
L38663 53874
" />
<path d="M37974 53874
L37974 54346
" />
<path d="M38663 52996
L38663 52524
" />
<path d="M37974 52524
L37974 52996
" />
</g> 
</svg>
