G04 #@! TF.FileFunction,Copper,L2,Bot,Signal*
%FSLAX46Y46*%
G04 Gerber Fmt 4.6, Leading zero omitted, Abs format (unit mm)*
G04 Created by KiCad (PCBNEW 4.0.1-stable) date 11/11/2016 12:06:41 PM*
%MOMM*%
G01*
G04 APERTURE LIST*
%ADD10C,0.100000*%
%ADD11C,1.000000*%
%ADD12C,0.150000*%
%ADD13R,0.500000X2.800000*%
%ADD14R,1.300000X0.700000*%
%ADD15C,1.000000*%
%ADD16C,0.604800*%
%ADD17C,0.600000*%
%ADD18C,0.300000*%
%ADD19C,0.200000*%
G04 APERTURE END LIST*
D10*
D11*
X144000000Y-69400000D02*
X148000000Y-71700000D01*
X148000000Y-71700000D02*
X148000000Y-76300000D01*
X148000000Y-76300000D02*
X144000000Y-78600000D01*
X144000000Y-78600000D02*
X140000000Y-76300000D01*
X140000000Y-76300000D02*
X140000000Y-71700000D01*
X140000000Y-71700000D02*
X144000000Y-69400000D01*
D12*
X148500000Y-76598000D02*
X144000000Y-79196000D01*
X144000000Y-79196000D02*
X139500000Y-76598000D01*
X139500000Y-71402000D02*
X144000000Y-68804000D01*
X144000000Y-68804000D02*
X148500000Y-71402000D01*
X148500000Y-71402000D02*
X148500000Y-76598000D01*
X139500000Y-71402000D02*
X139500000Y-76598000D01*
D11*
X144000000Y-120400000D02*
X148000000Y-122700000D01*
X148000000Y-122700000D02*
X148000000Y-127300000D01*
X148000000Y-127300000D02*
X144000000Y-129600000D01*
X144000000Y-129600000D02*
X140000000Y-127300000D01*
X140000000Y-127300000D02*
X140000000Y-122700000D01*
X140000000Y-122700000D02*
X144000000Y-120400000D01*
D12*
X148500000Y-127598000D02*
X144000000Y-130196000D01*
X144000000Y-130196000D02*
X139500000Y-127598000D01*
X139500000Y-122402000D02*
X144000000Y-119804000D01*
X144000000Y-119804000D02*
X148500000Y-122402000D01*
X148500000Y-122402000D02*
X148500000Y-127598000D01*
X139500000Y-122402000D02*
X139500000Y-127598000D01*
D11*
X56000000Y-120400000D02*
X60000000Y-122700000D01*
X60000000Y-122700000D02*
X60000000Y-127300000D01*
X60000000Y-127300000D02*
X56000000Y-129600000D01*
X56000000Y-129600000D02*
X52000000Y-127300000D01*
X52000000Y-127300000D02*
X52000000Y-122700000D01*
X52000000Y-122700000D02*
X56000000Y-120400000D01*
D12*
X60500000Y-127598000D02*
X56000000Y-130196000D01*
X56000000Y-130196000D02*
X51500000Y-127598000D01*
X51500000Y-122402000D02*
X56000000Y-119804000D01*
X56000000Y-119804000D02*
X60500000Y-122402000D01*
X60500000Y-122402000D02*
X60500000Y-127598000D01*
X51500000Y-122402000D02*
X51500000Y-127598000D01*
D11*
X56000000Y-69400000D02*
X60000000Y-71700000D01*
X60000000Y-71700000D02*
X60000000Y-76300000D01*
X60000000Y-76300000D02*
X56000000Y-78600000D01*
X56000000Y-78600000D02*
X52000000Y-76300000D01*
X52000000Y-76300000D02*
X52000000Y-71700000D01*
X52000000Y-71700000D02*
X56000000Y-69400000D01*
D12*
X60500000Y-76598000D02*
X56000000Y-79196000D01*
X56000000Y-79196000D02*
X51500000Y-76598000D01*
X51500000Y-71402000D02*
X56000000Y-68804000D01*
X56000000Y-68804000D02*
X60500000Y-71402000D01*
X60500000Y-71402000D02*
X60500000Y-76598000D01*
X51500000Y-71402000D02*
X51500000Y-76598000D01*
D13*
X116800000Y-58625000D03*
X115200000Y-58625000D03*
X116000000Y-58625000D03*
X114400000Y-58625000D03*
X95200000Y-58625000D03*
X96000000Y-58625000D03*
X91200000Y-58625000D03*
X100000000Y-58625000D03*
X100800000Y-58625000D03*
X102400000Y-58625000D03*
X101600000Y-58625000D03*
X98400000Y-58625000D03*
X99200000Y-58625000D03*
X97600000Y-58625000D03*
X96800000Y-58625000D03*
X109600000Y-58625000D03*
X110400000Y-58625000D03*
X112000000Y-58625000D03*
X111200000Y-58625000D03*
X113600000Y-58625000D03*
X112800000Y-58625000D03*
X106400000Y-58625000D03*
X107200000Y-58625000D03*
X108800000Y-58625000D03*
X108000000Y-58625000D03*
X104800000Y-58625000D03*
X105600000Y-58625000D03*
X104000000Y-58625000D03*
X103200000Y-58625000D03*
X80000000Y-58625000D03*
X80800000Y-58625000D03*
X82400000Y-58625000D03*
X81600000Y-58625000D03*
X84800000Y-58625000D03*
X85600000Y-58625000D03*
X84000000Y-58625000D03*
X83200000Y-58625000D03*
X89600000Y-58625000D03*
X90400000Y-58625000D03*
X88000000Y-58625000D03*
X88800000Y-58625000D03*
X87200000Y-58625000D03*
X86400000Y-58625000D03*
X73600000Y-58625000D03*
X74400000Y-58625000D03*
X76000000Y-58625000D03*
X75200000Y-58625000D03*
X78400000Y-58625000D03*
X79200000Y-58625000D03*
X77600000Y-58625000D03*
X76800000Y-58625000D03*
X70400000Y-58625000D03*
X71200000Y-58625000D03*
X72800000Y-58625000D03*
X72000000Y-58625000D03*
X68800000Y-58625000D03*
X69600000Y-58625000D03*
X68000000Y-58625000D03*
X66400000Y-58625000D03*
X67200000Y-58625000D03*
D14*
X102410000Y-136867000D03*
X102410000Y-134967000D03*
X99997000Y-134967000D03*
X99997000Y-136867000D03*
X97330000Y-136491000D03*
X97330000Y-138391000D03*
X97330000Y-133062000D03*
X97330000Y-134962000D03*
D15*
X147000000Y-133000000D03*
X53000000Y-133000000D03*
D16*
X79300000Y-109025000D03*
X79300000Y-106275000D03*
X79300000Y-103525000D03*
X79300000Y-100775000D03*
X79300000Y-98025000D03*
X79300000Y-95275000D03*
X79300000Y-92525000D03*
X79300000Y-89775000D03*
X82050000Y-109025000D03*
X82050000Y-106275000D03*
X82050000Y-103525000D03*
X82050000Y-100775000D03*
X82050000Y-98025000D03*
X82050000Y-95275000D03*
X82050000Y-92525000D03*
X82050000Y-89775000D03*
X84800000Y-109025000D03*
X84800000Y-106275000D03*
X84800000Y-103525000D03*
X84800000Y-100775000D03*
X84800000Y-98025000D03*
X84800000Y-95275000D03*
X84800000Y-92525000D03*
X84800000Y-89775000D03*
X87550000Y-109025000D03*
X87550000Y-106275000D03*
X87550000Y-103525000D03*
X87550000Y-100775000D03*
X87550000Y-98025000D03*
X87550000Y-95275000D03*
X87550000Y-92525000D03*
X87550000Y-89775000D03*
X90300000Y-109025000D03*
X90300000Y-106275000D03*
X90300000Y-103525000D03*
X90300000Y-100775000D03*
X90300000Y-98025000D03*
X90300000Y-95275000D03*
X90300000Y-92525000D03*
X90300000Y-89775000D03*
X93050000Y-109025000D03*
X93050000Y-106275000D03*
X93050000Y-103525000D03*
X93050000Y-100775000D03*
X93050000Y-98025000D03*
X93050000Y-95275000D03*
X93050000Y-92525000D03*
X93050000Y-89775000D03*
X95800000Y-109025000D03*
X95800000Y-106275000D03*
X95800000Y-103525000D03*
X95800000Y-100775000D03*
X95800000Y-98025000D03*
X95800000Y-95275000D03*
X95800000Y-92525000D03*
X95800000Y-89775000D03*
X98550000Y-109025000D03*
X98550000Y-106275000D03*
X98550000Y-103525000D03*
X98550000Y-100775000D03*
X98550000Y-98025000D03*
X98550000Y-95275000D03*
X98550000Y-92525000D03*
X98550000Y-89775000D03*
X101300000Y-109025000D03*
X101300000Y-106275000D03*
X101300000Y-103525000D03*
X101300000Y-100775000D03*
X101300000Y-98025000D03*
X101300000Y-95275000D03*
X101300000Y-92525000D03*
X101300000Y-89775000D03*
X104050000Y-109025000D03*
X104050000Y-106275000D03*
X104050000Y-103525000D03*
X104050000Y-100775000D03*
X104050000Y-98025000D03*
X104050000Y-95275000D03*
X104050000Y-92525000D03*
X104050000Y-89775000D03*
X106800000Y-109025000D03*
X106800000Y-106275000D03*
X106800000Y-103525000D03*
X106800000Y-100775000D03*
X106800000Y-98025000D03*
X106800000Y-95275000D03*
X106800000Y-92525000D03*
X106800000Y-89775000D03*
X109550000Y-109025000D03*
X109550000Y-106275000D03*
X109550000Y-103525000D03*
X109550000Y-100775000D03*
X109550000Y-98025000D03*
X109550000Y-95275000D03*
X109550000Y-92525000D03*
X109550000Y-89775000D03*
X112300000Y-109025000D03*
X112300000Y-106275000D03*
X112300000Y-103525000D03*
X112300000Y-100775000D03*
X112300000Y-98025000D03*
X112300000Y-95275000D03*
X112300000Y-92525000D03*
X112300000Y-89775000D03*
X115050000Y-109025000D03*
X115050000Y-106275000D03*
X115050000Y-103525000D03*
X115050000Y-100775000D03*
X115050000Y-98025000D03*
X115050000Y-95275000D03*
X115050000Y-92525000D03*
X115050000Y-89775000D03*
X117800000Y-109025000D03*
X117800000Y-106275000D03*
X117800000Y-103525000D03*
X117800000Y-100775000D03*
X117800000Y-98025000D03*
X117800000Y-95275000D03*
X117800000Y-92525000D03*
X117800000Y-89775000D03*
D13*
X145300000Y-58625000D03*
X142100000Y-58625000D03*
X142900000Y-58625000D03*
X144500000Y-58625000D03*
X143700000Y-58625000D03*
X140500000Y-58625000D03*
X141300000Y-58625000D03*
X139700000Y-58625000D03*
X138100000Y-58625000D03*
X138900000Y-58625000D03*
D17*
X75850000Y-85875000D03*
X76650000Y-85375000D03*
X78300000Y-84325000D03*
X77500000Y-84825000D03*
X79100000Y-83775000D03*
X79800000Y-83175000D03*
X81450000Y-82175000D03*
X80600000Y-82625000D03*
X82300000Y-81625000D03*
X83050000Y-81075000D03*
X84600000Y-80025000D03*
X83850000Y-80575000D03*
X85400000Y-79475000D03*
X86200000Y-78925000D03*
X87800000Y-77825000D03*
X87000000Y-78375000D03*
X88600000Y-77325000D03*
X89450000Y-76875000D03*
X91000000Y-75825000D03*
X90200000Y-76325000D03*
X91850000Y-75375000D03*
X92600000Y-74825000D03*
X94250000Y-75975000D03*
X93550000Y-75325000D03*
X94900000Y-76625000D03*
X95600000Y-77275000D03*
X97000000Y-78525000D03*
X96300000Y-77875000D03*
X97750000Y-79125000D03*
X98550000Y-79625000D03*
X100000000Y-80925000D03*
X99300000Y-80275000D03*
X131750000Y-131825000D03*
X143350000Y-64950000D03*
X100550000Y-81725000D03*
X100950000Y-82675000D03*
X102500000Y-83825000D03*
X101800000Y-83175000D03*
X103250000Y-84425000D03*
X103650000Y-85375000D03*
X105300000Y-86375000D03*
X104550000Y-85825000D03*
X105050000Y-77750000D03*
X105850000Y-77200000D03*
X107400000Y-76075000D03*
X106625000Y-76625000D03*
X108300000Y-75625000D03*
X109075000Y-75075000D03*
X110800000Y-74075000D03*
X109950000Y-74600000D03*
X111600000Y-73575000D03*
X112450000Y-73075000D03*
X114225000Y-72150000D03*
X113350000Y-72575000D03*
X115100000Y-71700000D03*
X115950000Y-71250000D03*
X117600000Y-70300000D03*
X116800000Y-70800000D03*
X118450000Y-69850000D03*
X119325000Y-69400000D03*
X121250000Y-70475000D03*
X120275000Y-70000000D03*
X73310000Y-133385000D03*
X134450000Y-132300000D03*
X145300000Y-63450000D03*
X96187000Y-133123000D03*
X96060000Y-139727000D03*
X144500000Y-64050000D03*
X132100000Y-133375000D03*
X103807000Y-136806000D03*
X96060000Y-136933000D03*
X113260000Y-133195000D03*
X115400000Y-129995000D03*
X86662000Y-131853000D03*
X108379000Y-131853000D03*
X144850000Y-66025000D03*
D10*
X66400000Y-58625000D02*
X66400000Y-77075000D01*
X66400000Y-77075000D02*
X75300000Y-85975000D01*
X78850000Y-109025000D02*
X79300000Y-109025000D01*
X78850000Y-109025000D02*
X78029198Y-108204198D01*
X78029198Y-88704198D02*
X75300000Y-85975000D01*
X78029198Y-108204198D02*
X78029198Y-88704198D01*
X78232398Y-88257398D02*
X75850000Y-85875000D01*
X78232398Y-91035200D02*
X78232398Y-88257398D01*
X78229200Y-105233800D02*
X79270400Y-106275000D01*
X79300000Y-106275000D02*
X79270400Y-106275000D01*
X79300000Y-106275000D02*
X79000002Y-106275000D01*
X78229200Y-105233800D02*
X78229200Y-91035200D01*
X78229200Y-91035200D02*
X78232398Y-91035200D01*
X78232398Y-91035200D02*
X78229200Y-91035200D01*
X67200000Y-58625000D02*
X67200000Y-76575000D01*
X67200000Y-76575000D02*
X76100000Y-85475000D01*
X79300000Y-103525000D02*
X79050004Y-103525000D01*
X79050004Y-103525000D02*
X78432400Y-102907396D01*
X78432400Y-102907396D02*
X78432400Y-90575000D01*
X78432400Y-87807400D02*
X78432400Y-90575000D01*
X78432400Y-90575000D02*
X78432400Y-90527200D01*
X78432400Y-87807400D02*
X76100000Y-85475000D01*
X78635600Y-87360600D02*
X76650000Y-85375000D01*
X78635600Y-87360600D02*
X78635600Y-100210594D01*
X78635600Y-100210594D02*
X79200006Y-100775000D01*
X79300000Y-100775000D02*
X79200006Y-100775000D01*
X80150000Y-86175000D02*
X78300000Y-84325000D01*
X80200000Y-88851600D02*
X80200000Y-86225000D01*
X79300000Y-96746200D02*
X80200000Y-95846200D01*
X80200000Y-95846200D02*
X80200000Y-88851600D01*
X79300000Y-96746200D02*
X79300000Y-98025000D01*
X80200000Y-86225000D02*
X80150000Y-86175000D01*
X79300000Y-98025000D02*
X79300000Y-97998800D01*
X68800000Y-58625000D02*
X68800000Y-75475000D01*
X68800000Y-75475000D02*
X77700000Y-84375000D01*
X79300000Y-93406100D02*
X79300000Y-95275000D01*
X79953202Y-92752898D02*
X79953202Y-89381002D01*
X79300000Y-93406100D02*
X79953202Y-92752898D01*
X79953202Y-86628202D02*
X77700000Y-84375000D01*
X79953202Y-89381002D02*
X79953202Y-86628202D01*
X79300000Y-90929600D02*
X79300000Y-92525000D01*
X79300000Y-90929600D02*
X79753200Y-90476400D01*
X79753200Y-89536600D02*
X79753200Y-89528200D01*
X79750000Y-87075000D02*
X77500000Y-84825000D01*
X79750000Y-89525000D02*
X79750000Y-87075000D01*
X79753200Y-90476400D02*
X79753200Y-89536600D01*
X79753200Y-89528200D02*
X79750000Y-89525000D01*
X68000000Y-58625000D02*
X68000000Y-76025000D01*
X68000000Y-76025000D02*
X76900000Y-84925000D01*
X79300000Y-87325000D02*
X79300000Y-89775000D01*
X79300000Y-87325000D02*
X76900000Y-84925000D01*
X69600000Y-58625000D02*
X69600000Y-74975000D01*
X69600000Y-74975000D02*
X78500000Y-83875000D01*
X81652100Y-109025000D02*
X82050000Y-109025000D01*
X81652100Y-109025000D02*
X80667600Y-108040500D01*
X80667600Y-108040500D02*
X80667600Y-86042600D01*
X80667600Y-86042600D02*
X78500000Y-83875000D01*
X80867602Y-85542602D02*
X79100000Y-83775000D01*
X80867602Y-88288802D02*
X80867602Y-85542602D01*
X80867602Y-105424300D02*
X80867602Y-88288802D01*
X81718302Y-106275000D02*
X82050000Y-106275000D01*
X81718302Y-106275000D02*
X80867602Y-105424300D01*
X70400000Y-58625000D02*
X70400000Y-74425000D01*
X81067604Y-102706500D02*
X81886104Y-103525000D01*
X81067604Y-102706500D02*
X81067604Y-85092604D01*
X70400000Y-74425000D02*
X81067604Y-85092604D01*
X82050000Y-103525000D02*
X81886104Y-103525000D01*
X81267606Y-84642606D02*
X79800000Y-83175000D01*
X81267606Y-84642606D02*
X81267606Y-87425000D01*
X82050000Y-100748800D02*
X81267606Y-99966406D01*
X82050000Y-100775000D02*
X82050000Y-100748800D01*
X81267606Y-99966406D02*
X81267606Y-87425000D01*
X81267606Y-87425000D02*
X81267606Y-87393406D01*
X82934504Y-83659504D02*
X81450000Y-82175000D01*
X82934504Y-83659504D02*
X82934504Y-86475000D01*
X82050000Y-98025000D02*
X82050000Y-97209300D01*
X82050000Y-97209300D02*
X82934504Y-96324796D01*
X82934504Y-96324796D02*
X82934504Y-86475000D01*
X82934504Y-86475000D02*
X82934504Y-86469504D01*
X72000000Y-58625000D02*
X72000000Y-73375000D01*
X82734502Y-92486198D02*
X82734502Y-84109502D01*
X82050000Y-93170700D02*
X82734502Y-92486198D01*
X82050000Y-93170700D02*
X82050000Y-95275000D01*
X72000000Y-73375000D02*
X82734502Y-84109502D01*
X82534500Y-84559500D02*
X80600000Y-82625000D01*
X82050000Y-90452900D02*
X82050000Y-92525000D01*
X82534500Y-89968400D02*
X82534500Y-87364900D01*
X82050000Y-90452900D02*
X82534500Y-89968400D01*
X82534500Y-87364900D02*
X82534500Y-84559500D01*
X71200000Y-58625000D02*
X71200000Y-73925000D01*
X82050000Y-84775000D02*
X82050000Y-89775000D01*
X71200000Y-73925000D02*
X82050000Y-84775000D01*
X72800000Y-58625000D02*
X72800000Y-72825000D01*
X83475000Y-108050000D02*
X83475000Y-83500000D01*
X84450000Y-109025000D02*
X84800000Y-109025000D01*
X84450000Y-109025000D02*
X83475000Y-108050000D01*
X72800000Y-72825000D02*
X83475000Y-83500000D01*
X83675002Y-105125000D02*
X84800000Y-106249998D01*
X84800000Y-106275000D02*
X84800000Y-106249998D01*
X83675002Y-85925002D02*
X83675002Y-83000002D01*
X83675002Y-105125000D02*
X83675002Y-85925002D01*
X83675002Y-83000002D02*
X82300000Y-81625000D01*
X82375000Y-81700000D02*
X82300000Y-81625000D01*
X82375000Y-81750000D02*
X82375000Y-81700000D01*
X73600000Y-58625000D02*
X73600000Y-72275000D01*
X83875004Y-82550004D02*
X83875004Y-85425004D01*
X83875004Y-102675000D02*
X83875004Y-85425004D01*
X83875004Y-102675000D02*
X84725004Y-103525000D01*
X73600000Y-72275000D02*
X83875004Y-82550004D01*
X84800000Y-103525000D02*
X84725004Y-103525000D01*
X84075006Y-82100006D02*
X83050000Y-81075000D01*
X84075006Y-82100006D02*
X84075006Y-84975000D01*
X84800000Y-100775000D02*
X84800000Y-100774994D01*
X84800000Y-100774994D02*
X84075006Y-100050000D01*
X84075006Y-100050000D02*
X84075006Y-84975000D01*
X84075006Y-84975000D02*
X84075006Y-84950006D01*
X85675004Y-81625000D02*
X85675004Y-81100004D01*
X85675004Y-95349996D02*
X85675004Y-81625000D01*
X84800000Y-96225000D02*
X84800000Y-98025000D01*
X84800000Y-96225000D02*
X85675004Y-95349996D01*
X85675004Y-81100004D02*
X84600000Y-80025000D01*
X75200000Y-58625000D02*
X75200000Y-71275000D01*
X85475002Y-84375002D02*
X85475002Y-81550002D01*
X85475002Y-93049998D02*
X85475002Y-84375002D01*
X84800000Y-93725000D02*
X85475002Y-93049998D01*
X84800000Y-93725000D02*
X84800000Y-95275000D01*
X75200000Y-71275000D02*
X85475002Y-81550002D01*
X83850000Y-80575000D02*
X83837500Y-80587500D01*
X85275000Y-82000000D02*
X83850000Y-80575000D01*
X85275000Y-89975000D02*
X85275000Y-84825000D01*
X84800000Y-90450000D02*
X85275000Y-89975000D01*
X84800000Y-92525000D02*
X84800000Y-90450000D01*
X85275000Y-84825000D02*
X85275000Y-82000000D01*
X74400000Y-58625000D02*
X74400000Y-71775000D01*
X84800000Y-82175000D02*
X84800000Y-85025000D01*
X84800000Y-85025000D02*
X84800000Y-89775000D01*
X74400000Y-71775000D02*
X84800000Y-82175000D01*
X76000000Y-58625000D02*
X76000000Y-70725000D01*
X86300000Y-108275000D02*
X86300000Y-81025000D01*
X87050000Y-109025000D02*
X86300000Y-108275000D01*
X87050000Y-109025000D02*
X87550000Y-109025000D01*
X76000000Y-70725000D02*
X86300000Y-81025000D01*
X86500002Y-105425002D02*
X86500002Y-80575002D01*
X86500002Y-105425002D02*
X87350000Y-106275000D01*
X86500002Y-80575002D02*
X85400000Y-79475000D01*
X87550000Y-106275000D02*
X87350000Y-106275000D01*
X76800000Y-58625000D02*
X76800000Y-70225000D01*
X86700004Y-102725000D02*
X86700004Y-80125004D01*
X86700004Y-102725000D02*
X87500004Y-103525000D01*
X76800000Y-70225000D02*
X86700004Y-80125004D01*
X87550000Y-103525000D02*
X87500004Y-103525000D01*
X86900006Y-79625006D02*
X86200000Y-78925000D01*
X86900006Y-100225006D02*
X86900006Y-79625006D01*
X86900006Y-100225006D02*
X87450000Y-100775000D01*
X87550000Y-100775000D02*
X87450000Y-100775000D01*
X88450004Y-95574996D02*
X88450004Y-78475004D01*
X88450004Y-78475004D02*
X87800000Y-77825000D01*
X87550000Y-96475000D02*
X88450004Y-95574996D01*
X87550000Y-96475000D02*
X87550000Y-98025000D01*
X78400000Y-58625000D02*
X78400000Y-69125000D01*
X88250002Y-92724998D02*
X88250002Y-78975002D01*
X87550000Y-93425000D02*
X88250002Y-92724998D01*
X87550000Y-93425000D02*
X87550000Y-95275000D01*
X78400000Y-69125000D02*
X88250002Y-78975002D01*
X88050000Y-79425000D02*
X87000000Y-78375000D01*
X88050000Y-89925000D02*
X88050000Y-79425000D01*
X87550000Y-90425000D02*
X88050000Y-89925000D01*
X87550000Y-90425000D02*
X87550000Y-92525000D01*
X77600000Y-58625000D02*
X77600000Y-69675000D01*
X87550000Y-79625000D02*
X87550000Y-89775000D01*
X77600000Y-69675000D02*
X87550000Y-79625000D01*
X89150002Y-77875002D02*
X88600000Y-77325000D01*
X89150002Y-105425000D02*
X89150002Y-77875002D01*
X89150002Y-105425000D02*
X90000002Y-106275000D01*
X90300000Y-106275000D02*
X90000002Y-106275000D01*
X80000000Y-58625000D02*
X80000000Y-68075000D01*
X89350004Y-102775000D02*
X89350004Y-77425004D01*
X89350004Y-102775000D02*
X90100004Y-103525000D01*
X80000000Y-68075000D02*
X89350004Y-77425004D01*
X90300000Y-103525000D02*
X90100004Y-103525000D01*
X89550006Y-76975006D02*
X89450000Y-76875000D01*
X89550006Y-100275000D02*
X89550006Y-76975006D01*
X89550006Y-100275000D02*
X90050006Y-100775000D01*
X90300000Y-100775000D02*
X90050006Y-100775000D01*
X91200004Y-96274996D02*
X91200004Y-76025004D01*
X91200004Y-76025004D02*
X91000000Y-75825000D01*
X90300000Y-97175000D02*
X91200004Y-96274996D01*
X90300000Y-97175000D02*
X90300000Y-98025000D01*
X81600000Y-58625000D02*
X81600000Y-67075000D01*
X91000002Y-92524998D02*
X91000002Y-76475002D01*
X90300000Y-93225000D02*
X91000002Y-92524998D01*
X90300000Y-93225000D02*
X90300000Y-95275000D01*
X81600000Y-67075000D02*
X91000002Y-76475002D01*
X90800000Y-76925000D02*
X90200000Y-76325000D01*
X90800000Y-89925000D02*
X90800000Y-76925000D01*
X90300000Y-90425000D02*
X90800000Y-89925000D01*
X90300000Y-90425000D02*
X90300000Y-92525000D01*
X80800000Y-58625000D02*
X80800000Y-67575000D01*
X90300000Y-77075000D02*
X90300000Y-89775000D01*
X80800000Y-67575000D02*
X90300000Y-77075000D01*
X91950000Y-75475000D02*
X91850000Y-75375000D01*
X92000000Y-105324998D02*
X91950000Y-75475000D01*
X92000000Y-105324998D02*
X92950002Y-106275000D01*
X93050000Y-106275000D02*
X92950002Y-106275000D01*
X83200000Y-58625000D02*
X83200000Y-66075000D01*
X92350000Y-103024998D02*
X92850002Y-103525000D01*
X92350000Y-103024998D02*
X92350000Y-75225000D01*
X83200000Y-66075000D02*
X92350000Y-75225000D01*
X93050000Y-103525000D02*
X92850002Y-103525000D01*
X92550002Y-100225000D02*
X93050000Y-100724998D01*
X92550002Y-100225000D02*
X92550002Y-74874998D01*
X92550002Y-74874998D02*
X92600000Y-74825000D01*
X93050000Y-100775000D02*
X93050000Y-100724998D01*
X93050000Y-96875000D02*
X93050000Y-98025000D01*
X93050000Y-96875000D02*
X93950004Y-95974996D01*
X93950004Y-95974996D02*
X93950004Y-76274996D01*
X93950004Y-76274996D02*
X94250000Y-75975000D01*
X84800000Y-58625000D02*
X84800000Y-65925000D01*
X93050000Y-93175000D02*
X93050000Y-95275000D01*
X93050000Y-93175000D02*
X93750002Y-92474998D01*
X93750002Y-92474998D02*
X93750002Y-75774998D01*
X93750002Y-75774998D02*
X94050000Y-75475000D01*
X94050000Y-75475000D02*
X94050000Y-75175000D01*
X84800000Y-65925000D02*
X94050000Y-75175000D01*
X93550000Y-90225000D02*
X93550000Y-75325000D01*
X93050000Y-90725000D02*
X93550000Y-90225000D01*
X93050000Y-90725000D02*
X93050000Y-92525000D01*
X84000000Y-58625000D02*
X84000000Y-65575000D01*
X93100000Y-75075000D02*
X93100000Y-74675000D01*
X93050000Y-75125000D02*
X93100000Y-75075000D01*
X93050000Y-75125000D02*
X93050000Y-89775000D01*
X84000000Y-65575000D02*
X93100000Y-74675000D01*
X95400002Y-106275000D02*
X95800000Y-106275000D01*
X95400002Y-106275000D02*
X94900000Y-105774998D01*
X94900000Y-105774998D02*
X94900000Y-76625000D01*
X86400000Y-58625000D02*
X86400000Y-66425000D01*
X95100002Y-77074998D02*
X95400000Y-76775000D01*
X95100002Y-102925000D02*
X95100002Y-77074998D01*
X95100002Y-102925000D02*
X95700002Y-103525000D01*
X95400000Y-75425000D02*
X95400000Y-76775000D01*
X86400000Y-66425000D02*
X95400000Y-75425000D01*
X95800000Y-103525000D02*
X95700002Y-103525000D01*
X95600000Y-77275000D02*
X95300004Y-77574996D01*
X95300004Y-77574996D02*
X95300004Y-100275004D01*
X95300004Y-100275004D02*
X95800000Y-100775000D01*
X95800000Y-96325000D02*
X95800000Y-98025000D01*
X95800000Y-96325000D02*
X97000000Y-95125000D01*
X97000000Y-95125000D02*
X97000000Y-78525000D01*
X88000000Y-58625000D02*
X88000000Y-66975000D01*
X96500002Y-78324998D02*
X96800000Y-78025000D01*
X96500002Y-92874998D02*
X96500002Y-78324998D01*
X95800000Y-93575000D02*
X96500002Y-92874998D01*
X95800000Y-93575000D02*
X95800000Y-95275000D01*
X96800000Y-75775000D02*
X96800000Y-78025000D01*
X88000000Y-66975000D02*
X96800000Y-75775000D01*
X95800000Y-90425000D02*
X95800000Y-92525000D01*
X95800000Y-90425000D02*
X96300000Y-89925000D01*
X96300000Y-89925000D02*
X96300000Y-77875000D01*
X96100000Y-77425000D02*
X96100000Y-75525000D01*
X87200000Y-66625000D02*
X96100000Y-75525000D01*
X95800000Y-89775000D02*
X95800000Y-77725000D01*
X95800000Y-77725000D02*
X96100000Y-77425000D01*
X87200000Y-66625000D02*
X87200000Y-58625000D01*
X97400004Y-105275000D02*
X98400004Y-106275000D01*
X98550000Y-106275000D02*
X98400004Y-106275000D01*
X97400004Y-105275000D02*
X97400004Y-79474996D01*
X97400004Y-79474996D02*
X97750000Y-79125000D01*
X89600000Y-58625000D02*
X89600000Y-67375000D01*
X97600006Y-79924994D02*
X98300000Y-79225000D01*
X97600006Y-102925000D02*
X97600006Y-79924994D01*
X98200006Y-103525000D02*
X97600006Y-102925000D01*
X98200006Y-103525000D02*
X98550000Y-103525000D01*
X98300000Y-76075000D02*
X98300000Y-79225000D01*
X89600000Y-67375000D02*
X98300000Y-76075000D01*
X97800008Y-99975008D02*
X98550000Y-100725000D01*
X98550000Y-100775000D02*
X98550000Y-100725000D01*
X97800008Y-99975008D02*
X97800008Y-80374992D01*
X97800008Y-80374992D02*
X98550000Y-79625000D01*
X98550000Y-98025000D02*
X98550000Y-96125000D01*
X98550000Y-96125000D02*
X99750000Y-94925000D01*
X99750000Y-94925000D02*
X99750000Y-81175000D01*
X99750000Y-81175000D02*
X100000000Y-80925000D01*
X91200000Y-58625000D02*
X91200000Y-68150000D01*
X99950000Y-76900000D02*
X99950000Y-80275000D01*
X91200000Y-68150000D02*
X99950000Y-76900000D01*
X98550000Y-95275000D02*
X98550000Y-93175000D01*
X98550000Y-93175000D02*
X99500002Y-92224998D01*
X99500002Y-92224998D02*
X99500002Y-80724998D01*
X99500002Y-80724998D02*
X99950000Y-80275000D01*
X98550000Y-90525000D02*
X98550000Y-92525000D01*
X98550000Y-90525000D02*
X99300000Y-89775000D01*
X99300000Y-89775000D02*
X99300000Y-80275000D01*
X90400000Y-58625000D02*
X90400000Y-67800000D01*
X98550000Y-80375000D02*
X99050000Y-79875000D01*
X98550000Y-80375000D02*
X98550000Y-89775000D01*
X99050000Y-76450000D02*
X99050000Y-79875000D01*
X90400000Y-67800000D02*
X99050000Y-76450000D01*
D18*
X131750000Y-131825000D02*
X132650000Y-130925000D01*
X132650000Y-130925000D02*
X132650000Y-75750000D01*
X132650000Y-75750000D02*
X143350000Y-65050000D01*
X143350000Y-65050000D02*
X143350000Y-64950000D01*
D10*
X95200000Y-58625000D02*
X95200000Y-71725000D01*
X100500000Y-77025000D02*
X100500000Y-81075000D01*
X95200000Y-71725000D02*
X100500000Y-77025000D01*
X100800000Y-109025000D02*
X101300000Y-109025000D01*
X100800000Y-109025000D02*
X100050000Y-108275000D01*
X100050000Y-108275000D02*
X100050000Y-81525000D01*
X100050000Y-81525000D02*
X100500000Y-81075000D01*
X100250002Y-105675000D02*
X100250002Y-82024998D01*
X100250002Y-82024998D02*
X100550000Y-81725000D01*
X100850002Y-106275000D02*
X100250002Y-105675000D01*
X100850002Y-106275000D02*
X101300000Y-106275000D01*
X96000000Y-58625000D02*
X96000000Y-72075000D01*
X101050000Y-77125000D02*
X101050000Y-81875000D01*
X96000000Y-72075000D02*
X101050000Y-77125000D01*
X101300000Y-103525000D02*
X100900004Y-103525000D01*
X100900004Y-103525000D02*
X100450004Y-103075000D01*
X100450004Y-103075000D02*
X100450004Y-82474996D01*
X100450004Y-82474996D02*
X101050000Y-81875000D01*
X100650006Y-100225000D02*
X101200006Y-100775000D01*
X101300000Y-100775000D02*
X101200006Y-100775000D01*
X100650006Y-100225000D02*
X100650006Y-82974994D01*
X100650006Y-82974994D02*
X100950000Y-82675000D01*
X101300000Y-97425000D02*
X101300000Y-98025000D01*
X101300000Y-97425000D02*
X102200004Y-96524996D01*
X102200004Y-84124996D02*
X102500000Y-83825000D01*
X102200004Y-96524996D02*
X102200004Y-84124996D01*
X97600000Y-58625000D02*
X97600000Y-72825000D01*
X102300000Y-77525000D02*
X102300000Y-83325000D01*
X97600000Y-72825000D02*
X102300000Y-77525000D01*
X101300000Y-95275000D02*
X101300000Y-93425000D01*
X101300000Y-93425000D02*
X102000002Y-92724998D01*
X102000002Y-92724998D02*
X102000002Y-83624998D01*
X102000002Y-83624998D02*
X102300000Y-83325000D01*
X101300000Y-90425000D02*
X101300000Y-92525000D01*
X101300000Y-90425000D02*
X101800000Y-89925000D01*
X101800000Y-89925000D02*
X101800000Y-83175000D01*
X96800000Y-58625000D02*
X96800000Y-72475000D01*
X101450000Y-77125000D02*
X101450000Y-82875000D01*
X96800000Y-72475000D02*
X101450000Y-77125000D01*
X101300000Y-89775000D02*
X101300000Y-83025000D01*
X101300000Y-83025000D02*
X101450000Y-82875000D01*
X98400000Y-58625000D02*
X98400000Y-73200000D01*
X103000000Y-77800000D02*
X103000000Y-83975000D01*
X98400000Y-73200000D02*
X103000000Y-77800000D01*
X103700000Y-109025000D02*
X104050000Y-109025000D01*
X103700000Y-109025000D02*
X102750000Y-108075000D01*
X102750000Y-108075000D02*
X102750000Y-84225000D01*
X102750000Y-84225000D02*
X103000000Y-83975000D01*
X102950002Y-105375000D02*
X103850002Y-106275000D01*
X104050000Y-106275000D02*
X103850002Y-106275000D01*
X102950002Y-105375000D02*
X102950002Y-84724998D01*
X102950002Y-84724998D02*
X103250000Y-84425000D01*
X99200000Y-58625000D02*
X99200000Y-73650000D01*
X103750000Y-78200000D02*
X103750000Y-84575000D01*
X99200000Y-73650000D02*
X103750000Y-78200000D01*
X103700004Y-103525000D02*
X104050000Y-103525000D01*
X103700004Y-103525000D02*
X103150004Y-102975000D01*
X103150004Y-102975000D02*
X103150004Y-85174996D01*
X103150004Y-85174996D02*
X103750000Y-84575000D01*
X103450000Y-100175000D02*
X104050000Y-100775000D01*
X103450000Y-85575000D02*
X103450000Y-100175000D01*
X103650000Y-85375000D02*
X103450000Y-85575000D01*
X104950004Y-95024996D02*
X104950004Y-86724996D01*
X104950004Y-86724996D02*
X105300000Y-86375000D01*
X104050000Y-95925000D02*
X104950004Y-95024996D01*
X104050000Y-98025000D02*
X104050000Y-95925000D01*
X105050000Y-85975000D02*
X105050000Y-85625000D01*
X104750002Y-92474998D02*
X104750002Y-86274998D01*
X104050000Y-93175000D02*
X104750002Y-92474998D01*
X104050000Y-95275000D02*
X104050000Y-93175000D01*
X104750002Y-86274998D02*
X105050000Y-85975000D01*
X104550000Y-85125000D02*
X104550000Y-78250000D01*
X105050000Y-85625000D02*
X104550000Y-85125000D01*
X100800000Y-58625000D02*
X100800000Y-74500000D01*
X100800000Y-74500000D02*
X104550000Y-78250000D01*
X104550000Y-90025000D02*
X104550000Y-85825000D01*
X104050000Y-90525000D02*
X104550000Y-90025000D01*
X104050000Y-90525000D02*
X104050000Y-92525000D01*
X100000000Y-58625000D02*
X100000000Y-74075000D01*
X104250000Y-78325000D02*
X104250000Y-85425000D01*
X100000000Y-74075000D02*
X104250000Y-78325000D01*
X104050000Y-89775000D02*
X104050000Y-85625000D01*
X104050000Y-85625000D02*
X104250000Y-85425000D01*
X104812500Y-78187500D02*
X104812500Y-84937500D01*
X105500000Y-108125000D02*
X105500000Y-86825000D01*
X106400000Y-109025000D02*
X105500000Y-108125000D01*
X106400000Y-109025000D02*
X106800000Y-109025000D01*
X105800000Y-86525000D02*
X105500000Y-86825000D01*
X105800000Y-85925000D02*
X105800000Y-86525000D01*
X104812500Y-84937500D02*
X105800000Y-85925000D01*
X101600000Y-58625000D02*
X101600000Y-74975000D01*
X101600000Y-74975000D02*
X104812500Y-78187500D01*
X106150000Y-85900000D02*
X105050000Y-84800000D01*
X105050000Y-84800000D02*
X105050000Y-77750000D01*
X105700002Y-86924998D02*
X106150000Y-86475000D01*
X105700002Y-105425002D02*
X105700002Y-86925000D01*
X105700002Y-105425002D02*
X106550000Y-106275000D01*
X105700002Y-86925000D02*
X105700002Y-86924998D01*
X106150000Y-86475000D02*
X106150000Y-85900000D01*
X106800000Y-106275000D02*
X106550000Y-106275000D01*
X105900004Y-87275000D02*
X105900004Y-87124996D01*
X102400000Y-74400000D02*
X102400000Y-58625000D01*
X106400000Y-78400000D02*
X102400000Y-74400000D01*
X106400000Y-86625000D02*
X106400000Y-78400000D01*
X105900004Y-87124996D02*
X106400000Y-86625000D01*
X105900004Y-102925000D02*
X106500004Y-103525000D01*
X106800000Y-103525000D02*
X106500004Y-103525000D01*
X105900004Y-102925000D02*
X105900004Y-87275000D01*
X105900004Y-87275000D02*
X105900004Y-87274996D01*
X105850000Y-77200000D02*
X106900000Y-78250000D01*
X106100006Y-87224994D02*
X106100006Y-87425000D01*
X106100006Y-87224994D02*
X106900000Y-86425000D01*
X106900000Y-78250000D02*
X106900000Y-86425000D01*
X106100006Y-100175000D02*
X106700006Y-100775000D01*
X106800000Y-100775000D02*
X106700006Y-100775000D01*
X106100006Y-100175000D02*
X106100006Y-87425000D01*
X106100006Y-87425000D02*
X106100006Y-87424994D01*
X108350000Y-86225000D02*
X108350000Y-77025000D01*
X107700004Y-86874996D02*
X108350000Y-86225000D01*
X107700004Y-96024996D02*
X107700004Y-87057842D01*
X106800000Y-96925000D02*
X107700004Y-96024996D01*
X106800000Y-96925000D02*
X106800000Y-98025000D01*
X107700004Y-87057842D02*
X107700004Y-86874996D01*
X108350000Y-77025000D02*
X107400000Y-76075000D01*
X107500002Y-86975000D02*
X107500002Y-86724998D01*
X104000000Y-73325000D02*
X104000000Y-58625000D01*
X108050000Y-77375000D02*
X104000000Y-73325000D01*
X108050000Y-86175000D02*
X108050000Y-77375000D01*
X107500002Y-86724998D02*
X108050000Y-86175000D01*
X107500002Y-93174998D02*
X107500002Y-86975000D01*
X107500002Y-86975000D02*
X107500002Y-86974998D01*
X106800000Y-93875000D02*
X107500002Y-93174998D01*
X106800000Y-93875000D02*
X106800000Y-95275000D01*
X107650000Y-77725000D02*
X107650000Y-77650000D01*
X107650000Y-77650000D02*
X106625000Y-76625000D01*
X107300000Y-86625000D02*
X107650000Y-86275000D01*
X107650000Y-86275000D02*
X107650000Y-77725000D01*
X107300000Y-90025000D02*
X107300000Y-86857846D01*
X106800000Y-90525000D02*
X107300000Y-90025000D01*
X106800000Y-90525000D02*
X106800000Y-92525000D01*
X107300000Y-86857846D02*
X107300000Y-86625000D01*
X106800000Y-87075000D02*
X106800000Y-86825000D01*
X106800000Y-89775000D02*
X106800000Y-87075000D01*
X103200000Y-73850000D02*
X103200000Y-58625000D01*
X107400000Y-78050000D02*
X103200000Y-73850000D01*
X107400000Y-86225000D02*
X107400000Y-78050000D01*
X106800000Y-86825000D02*
X107400000Y-86225000D01*
X108300000Y-86740692D02*
X108300000Y-86575000D01*
X108300000Y-108475000D02*
X108300000Y-86740692D01*
X108850000Y-109025000D02*
X108300000Y-108475000D01*
X109550000Y-109025000D02*
X108850000Y-109025000D01*
X104800000Y-72800000D02*
X104800000Y-58625000D01*
X108850000Y-76850000D02*
X104800000Y-72800000D01*
X108850000Y-86025000D02*
X108850000Y-76850000D01*
X108300000Y-86575000D02*
X108850000Y-86025000D01*
X109200000Y-76500000D02*
X108300000Y-75600000D01*
X108300000Y-75600000D02*
X108300000Y-75625000D01*
X108500002Y-86825000D02*
X108500002Y-86674998D01*
X109200000Y-85975000D02*
X109200000Y-76500000D01*
X108500002Y-86674998D02*
X109200000Y-85975000D01*
X108500002Y-105725000D02*
X108500002Y-86825000D01*
X108500002Y-86825000D02*
X108500002Y-86823536D01*
X109050002Y-106275000D02*
X108500002Y-105725000D01*
X109050002Y-106275000D02*
X109550000Y-106275000D01*
X108700004Y-86906380D02*
X108700004Y-86757842D01*
X108700004Y-102875000D02*
X108700004Y-86906380D01*
X109350004Y-103525000D02*
X108700004Y-102875000D01*
X105600000Y-72250000D02*
X105600000Y-58625000D01*
X109700000Y-76350000D02*
X105600000Y-72250000D01*
X109700000Y-85757846D02*
X109700000Y-76350000D01*
X108700004Y-86757842D02*
X109700000Y-85757846D01*
X109550000Y-103525000D02*
X109350004Y-103525000D01*
X110050000Y-76050000D02*
X109075000Y-75075000D01*
X108950000Y-86975000D02*
X108950000Y-86790692D01*
X108950000Y-100275000D02*
X108950000Y-86975000D01*
X109450000Y-100775000D02*
X108950000Y-100275000D01*
X110050000Y-85690692D02*
X110050000Y-76050000D01*
X108950000Y-86790692D02*
X110050000Y-85690692D01*
X109550000Y-100775000D02*
X109450000Y-100775000D01*
X111675000Y-74975000D02*
X111675000Y-74950000D01*
X111675000Y-74950000D02*
X110800000Y-74075000D01*
X110500002Y-86590690D02*
X110500002Y-86372074D01*
X109550000Y-98025000D02*
X109550000Y-96575000D01*
X109550000Y-96575000D02*
X110500002Y-95624998D01*
X110500002Y-95624998D02*
X110500002Y-86590690D01*
X111675000Y-85197076D02*
X111675000Y-74975000D01*
X110500002Y-86372074D02*
X111675000Y-85197076D01*
X110300000Y-86525000D02*
X110300000Y-86289230D01*
X107200000Y-71125000D02*
X107200000Y-58625000D01*
X111350000Y-75275000D02*
X107200000Y-71125000D01*
X111350000Y-85239230D02*
X111350000Y-75275000D01*
X110300000Y-86289230D02*
X111350000Y-85239230D01*
X109550000Y-93275000D02*
X109550000Y-95275000D01*
X109550000Y-93275000D02*
X110300000Y-92525000D01*
X110300000Y-92525000D02*
X110300000Y-86525000D01*
X110300000Y-86525000D02*
X110300000Y-86507846D01*
X110850000Y-75500000D02*
X109950000Y-74600000D01*
X110050000Y-86475000D02*
X110050000Y-86256384D01*
X110050000Y-90375000D02*
X110050000Y-86475000D01*
X109550000Y-90875000D02*
X110050000Y-90375000D01*
X109550000Y-92525000D02*
X109550000Y-90875000D01*
X110850000Y-85456384D02*
X110850000Y-75500000D01*
X110050000Y-86256384D02*
X110850000Y-85456384D01*
X109550000Y-86675000D02*
X109550000Y-86473538D01*
X109550000Y-89775000D02*
X109550000Y-86675000D01*
X106400000Y-71725000D02*
X106400000Y-58625000D01*
X110550000Y-75875000D02*
X106400000Y-71725000D01*
X110550000Y-85473538D02*
X110550000Y-75875000D01*
X109550000Y-86473538D02*
X110550000Y-85473538D01*
X111000000Y-86373538D02*
X111000000Y-86154922D01*
X111000000Y-108475000D02*
X111000000Y-86373538D01*
X111550000Y-109025000D02*
X111000000Y-108475000D01*
X112300000Y-109025000D02*
X111550000Y-109025000D01*
X108000000Y-70625000D02*
X108000000Y-58625000D01*
X112150000Y-74775000D02*
X108000000Y-70625000D01*
X112150000Y-85004922D02*
X112150000Y-74775000D01*
X111000000Y-86154922D02*
X112150000Y-85004922D01*
X112475000Y-74525000D02*
X112475000Y-74450000D01*
X112475000Y-74450000D02*
X111600000Y-73575000D01*
X111200002Y-86474998D02*
X111200002Y-86237766D01*
X112300000Y-106275000D02*
X111950000Y-106275000D01*
X111950000Y-106275000D02*
X111200002Y-105525002D01*
X111200002Y-105525002D02*
X111200002Y-86474998D01*
X112475000Y-84962768D02*
X112475000Y-74525000D01*
X111200002Y-86237766D02*
X112475000Y-84962768D01*
X111400004Y-86574996D02*
X111400004Y-86320610D01*
X112100000Y-103525000D02*
X111400004Y-102825004D01*
X111400004Y-102825004D02*
X111400004Y-86574996D01*
X108800000Y-70075000D02*
X108800000Y-58625000D01*
X112950000Y-74225000D02*
X108800000Y-70075000D01*
X112950000Y-84770614D02*
X112950000Y-74225000D01*
X111400004Y-86320610D02*
X112950000Y-84770614D01*
X112300000Y-103525000D02*
X112100000Y-103525000D01*
X113300000Y-73975000D02*
X113300000Y-73925000D01*
X113300000Y-73925000D02*
X112450000Y-73075000D01*
X111700000Y-86557846D02*
X111700000Y-86303460D01*
X112250000Y-100775000D02*
X111700000Y-100225000D01*
X111700000Y-100225000D02*
X111700000Y-86557846D01*
X113300000Y-84703460D02*
X113300000Y-73975000D01*
X111700000Y-86303460D02*
X113300000Y-84703460D01*
X112300000Y-100775000D02*
X112250000Y-100775000D01*
X114975000Y-73000000D02*
X114975000Y-72900000D01*
X114975000Y-72900000D02*
X114225000Y-72150000D01*
X113250002Y-86140690D02*
X113250002Y-85884842D01*
X112300000Y-98025000D02*
X112300000Y-95925000D01*
X112300000Y-95925000D02*
X113250002Y-94974998D01*
X113250002Y-94974998D02*
X113250002Y-86140690D01*
X114975000Y-84159844D02*
X114975000Y-73000000D01*
X113250002Y-85884842D02*
X114975000Y-84159844D01*
X113050000Y-86057846D02*
X113050000Y-85801998D01*
X112300000Y-95275000D02*
X112300000Y-93175000D01*
X112300000Y-93175000D02*
X113050000Y-92425000D01*
X113050000Y-92425000D02*
X113050000Y-86057846D01*
X110400000Y-68975000D02*
X110400000Y-58625000D01*
X114575000Y-73150000D02*
X110400000Y-68975000D01*
X114575000Y-84276998D02*
X114575000Y-73150000D01*
X113050000Y-85801998D02*
X114575000Y-84276998D01*
X114100000Y-73300000D02*
X114075000Y-73300000D01*
X114075000Y-73300000D02*
X113350000Y-72575000D01*
X112800000Y-86025000D02*
X112800000Y-85769152D01*
X112800000Y-90025000D02*
X112800000Y-86025000D01*
X112300000Y-90525000D02*
X112800000Y-90025000D01*
X112300000Y-92525000D02*
X112300000Y-90525000D01*
X114100000Y-84469152D02*
X114100000Y-73300000D01*
X112800000Y-85769152D02*
X114100000Y-84469152D01*
X112300000Y-86240692D02*
X112300000Y-85986306D01*
X112300000Y-89775000D02*
X112300000Y-86240692D01*
X109600000Y-69475000D02*
X109600000Y-58625000D01*
X113775000Y-73650000D02*
X109600000Y-69475000D01*
X113775000Y-84511306D02*
X113775000Y-73650000D01*
X112300000Y-85986306D02*
X113775000Y-84511306D01*
X113750000Y-85923538D02*
X113750000Y-85667690D01*
X115050000Y-109025000D02*
X114200000Y-109025000D01*
X114200000Y-109025000D02*
X113750000Y-108575000D01*
X113750000Y-108575000D02*
X113750000Y-85923538D01*
X111200000Y-68450000D02*
X111200000Y-58625000D01*
X115450000Y-72700000D02*
X111200000Y-68450000D01*
X115450000Y-83967690D02*
X115450000Y-72700000D01*
X113750000Y-85667690D02*
X115450000Y-83967690D01*
X115775000Y-72375000D02*
X115100000Y-71700000D01*
X113950002Y-86024998D02*
X113950002Y-85750534D01*
X114850000Y-106275000D02*
X113950002Y-105375002D01*
X113950002Y-105375002D02*
X113950002Y-86024998D01*
X115775000Y-83925536D02*
X115775000Y-72375000D01*
X113950002Y-85750534D02*
X115775000Y-83925536D01*
X115050000Y-106275000D02*
X114850000Y-106275000D01*
X114150004Y-86125000D02*
X114150004Y-85833378D01*
X112000000Y-67950000D02*
X112000000Y-58625000D01*
X116250000Y-72200000D02*
X112000000Y-67950000D01*
X116250000Y-83733382D02*
X116250000Y-72200000D01*
X114150004Y-85833378D02*
X116250000Y-83733382D01*
X114150004Y-102775004D02*
X114150004Y-86125000D01*
X114150004Y-86125000D02*
X114150004Y-86124996D01*
X114150004Y-102775004D02*
X114900000Y-103525000D01*
X115050000Y-103525000D02*
X114900000Y-103525000D01*
X116600000Y-71950000D02*
X116600000Y-71900000D01*
X116600000Y-71900000D02*
X115950000Y-71250000D01*
X114391423Y-86183577D02*
X114391423Y-85874805D01*
X115000000Y-100775000D02*
X114391423Y-100166423D01*
X114391423Y-100166423D02*
X114391423Y-86183577D01*
X116600000Y-83666228D02*
X116600000Y-71950000D01*
X114391423Y-85874805D02*
X116600000Y-83666228D01*
X115050000Y-100775000D02*
X115000000Y-100775000D01*
X118150000Y-70950000D02*
X118150000Y-70850000D01*
X118150000Y-70850000D02*
X117600000Y-70300000D01*
X115950004Y-85825000D02*
X115950004Y-85447608D01*
X118150000Y-83247612D02*
X118150000Y-70950000D01*
X115950004Y-85447608D02*
X118150000Y-83247612D01*
X115950004Y-95074996D02*
X115950004Y-85825000D01*
X115950004Y-85825000D02*
X115950004Y-85824996D01*
X115050000Y-95975000D02*
X115950004Y-95074996D01*
X115050000Y-95975000D02*
X115050000Y-98025000D01*
X115750002Y-85724998D02*
X115750002Y-85364764D01*
X115050000Y-95275000D02*
X115050000Y-93575000D01*
X115050000Y-93575000D02*
X115750002Y-92874998D01*
X115750002Y-92874998D02*
X115750002Y-85724998D01*
X113600000Y-66950000D02*
X113600000Y-58625000D01*
X117875000Y-71225000D02*
X113600000Y-66950000D01*
X117875000Y-83239766D02*
X117875000Y-71225000D01*
X115750002Y-85364764D02*
X117875000Y-83239766D01*
X117400000Y-71500000D02*
X117400000Y-71400000D01*
X117400000Y-71400000D02*
X116800000Y-70800000D01*
X115550000Y-85607846D02*
X115550000Y-85281920D01*
X115550000Y-89975000D02*
X115550000Y-85607846D01*
X115050000Y-90475000D02*
X115550000Y-89975000D01*
X115050000Y-92525000D02*
X115050000Y-90475000D01*
X117400000Y-83431920D02*
X117400000Y-71500000D01*
X115550000Y-85281920D02*
X117400000Y-83431920D01*
X115050000Y-85825000D02*
X115050000Y-85499074D01*
X115050000Y-89775000D02*
X115050000Y-85825000D01*
X112800000Y-67450000D02*
X112800000Y-58625000D01*
X117075000Y-71725000D02*
X112800000Y-67450000D01*
X117075000Y-83474074D02*
X117075000Y-71725000D01*
X115050000Y-85499074D02*
X117075000Y-83474074D01*
X114400000Y-58625000D02*
X114400000Y-66450000D01*
X116550000Y-85130458D02*
X118625000Y-83055458D01*
X118625000Y-83055458D02*
X118625000Y-70675000D01*
X118625000Y-70675000D02*
X114400000Y-66450000D01*
X116550000Y-108525000D02*
X116550000Y-85507846D01*
X117050000Y-109025000D02*
X116550000Y-108525000D01*
X117050000Y-109025000D02*
X117800000Y-109025000D01*
X116550000Y-85507846D02*
X116550000Y-85130458D01*
X116850000Y-85150000D02*
X116850000Y-85113304D01*
X116850000Y-85113304D02*
X118875000Y-83088304D01*
X118875000Y-70275000D02*
X118450000Y-69850000D01*
X118875000Y-83088304D02*
X118875000Y-70275000D01*
X116850000Y-105625000D02*
X116850000Y-85525000D01*
X116850000Y-105625000D02*
X117500000Y-106275000D01*
X116850000Y-85525000D02*
X116850000Y-85150000D01*
X117800000Y-106275000D02*
X117500000Y-106275000D01*
X119260575Y-82985575D02*
X119260575Y-69985575D01*
X115200000Y-65925000D02*
X115200000Y-58625000D01*
X119260575Y-69985575D02*
X115200000Y-65925000D01*
X117050002Y-85650000D02*
X117050002Y-85196148D01*
X117050002Y-85196148D02*
X119260575Y-82985575D01*
X117050002Y-102825002D02*
X117050002Y-85650000D01*
X117050002Y-85650000D02*
X117050002Y-85624998D01*
X117050002Y-102825002D02*
X117750000Y-103525000D01*
X117800000Y-103525000D02*
X117750000Y-103525000D01*
X119514498Y-83014498D02*
X119514498Y-69589498D01*
X119514498Y-69589498D02*
X119325000Y-69400000D01*
X117250004Y-85707842D02*
X117250004Y-85278992D01*
X117800000Y-100524996D02*
X117250004Y-99975000D01*
X117250004Y-99975000D02*
X117250004Y-85707842D01*
X117250004Y-85278992D02*
X119514498Y-83014498D01*
X117800000Y-100775000D02*
X117800000Y-100524996D01*
X118750000Y-85400000D02*
X118750000Y-84910380D01*
X121250000Y-82410380D02*
X121250000Y-70475000D01*
X118750000Y-84910380D02*
X121250000Y-82410380D01*
X117800000Y-96325000D02*
X118750000Y-95375000D01*
X118750000Y-95375000D02*
X118750000Y-85400000D01*
X118750000Y-85400000D02*
X118750000Y-85375000D01*
X117800000Y-96325000D02*
X117800000Y-98025000D01*
X118500002Y-85306382D02*
X118500002Y-84877532D01*
X117800000Y-95275000D02*
X117800000Y-93175000D01*
X118500002Y-92474998D02*
X118500002Y-85306382D01*
X117800000Y-93175000D02*
X118500002Y-92474998D01*
X116800000Y-65825000D02*
X116800000Y-58625000D01*
X120775000Y-69800000D02*
X116800000Y-65825000D01*
X120775000Y-82602534D02*
X120775000Y-69800000D01*
X118500002Y-84877532D02*
X120775000Y-82602534D01*
X118300000Y-85225000D02*
X118300000Y-84794688D01*
X120275000Y-82819688D02*
X120275000Y-70000000D01*
X118300000Y-84794688D02*
X120275000Y-82819688D01*
X117800000Y-90425000D02*
X117800000Y-92525000D01*
X117800000Y-90425000D02*
X118300000Y-89925000D01*
X118300000Y-89925000D02*
X118300000Y-85225000D01*
X118300000Y-85225000D02*
X118300000Y-85223538D01*
X117800000Y-85440692D02*
X117800000Y-85011842D01*
X117800000Y-89775000D02*
X117800000Y-85440692D01*
X116000000Y-65400000D02*
X116000000Y-58625000D01*
X119800000Y-69200000D02*
X116000000Y-65400000D01*
X119800000Y-83011842D02*
X119800000Y-69200000D01*
X117800000Y-85011842D02*
X119800000Y-83011842D01*
D18*
X138100000Y-58625000D02*
X138100000Y-67255000D01*
X109288000Y-134967000D02*
X102410000Y-134967000D01*
X130480000Y-113775000D02*
X109288000Y-134967000D01*
X130480000Y-74875000D02*
X130480000Y-113775000D01*
X138100000Y-67255000D02*
X130480000Y-74875000D01*
X102410000Y-134901000D02*
X102410000Y-134967000D01*
D19*
X145300000Y-58625000D02*
X145300000Y-62103372D01*
X141300000Y-66103372D02*
X131990000Y-75413372D01*
X131990000Y-75413372D02*
X131990000Y-115555000D01*
X131990000Y-115555000D02*
X107120000Y-140425000D01*
X107120000Y-140425000D02*
X80350000Y-140425000D01*
X80350000Y-140425000D02*
X73310000Y-133385000D01*
X145300000Y-62103372D02*
X141300000Y-66103372D01*
X145300000Y-64625000D02*
X145300000Y-63450000D01*
X134500000Y-75425000D02*
X145300000Y-64625000D01*
X134500000Y-132250000D02*
X134500000Y-75425000D01*
X134450000Y-132300000D02*
X134500000Y-132250000D01*
X97330000Y-133062000D02*
X96248000Y-133062000D01*
X96248000Y-133062000D02*
X96187000Y-133123000D01*
X99997000Y-134967000D02*
X99423000Y-134967000D01*
X99423000Y-134967000D02*
X98600000Y-135790000D01*
X98600000Y-135790000D02*
X98600000Y-137121000D01*
X98600000Y-137121000D02*
X97330000Y-138391000D01*
X97330000Y-138391000D02*
X97330000Y-138457000D01*
X97330000Y-138457000D02*
X96060000Y-139727000D01*
X133550000Y-131925000D02*
X133550000Y-131615000D01*
X133550000Y-131615000D02*
X133550000Y-75800000D01*
X133550000Y-75800000D02*
X144500000Y-64850000D01*
X144500000Y-64850000D02*
X144500000Y-64050000D01*
X132100000Y-133375000D02*
X133550000Y-131925000D01*
X102410000Y-136867000D02*
X103746000Y-136867000D01*
X103746000Y-136867000D02*
X103807000Y-136806000D01*
X99997000Y-136867000D02*
X102410000Y-136867000D01*
X97330000Y-136491000D02*
X96502000Y-136491000D01*
X96502000Y-136491000D02*
X96060000Y-136933000D01*
X97330000Y-134962000D02*
X97330000Y-136491000D01*
X144500000Y-58625000D02*
X144500000Y-62405000D01*
X140500000Y-66405000D02*
X131450000Y-75455000D01*
X131450000Y-75455000D02*
X131450000Y-115005000D01*
X131450000Y-115005000D02*
X113260000Y-133195000D01*
X144500000Y-62405000D02*
X140500000Y-66405000D01*
X143700000Y-58625000D02*
X143700000Y-62455000D01*
X139700000Y-66455000D02*
X130950000Y-75205000D01*
X130950000Y-75205000D02*
X130950000Y-114445000D01*
X130950000Y-114445000D02*
X115400000Y-129995000D01*
X143700000Y-62455000D02*
X139700000Y-66455000D01*
X91996000Y-133123000D02*
X87932000Y-133123000D01*
X93266000Y-131853000D02*
X91996000Y-133123000D01*
X108379000Y-131853000D02*
X93266000Y-131853000D01*
X87932000Y-133123000D02*
X86662000Y-131853000D01*
D10*
X79200000Y-58625000D02*
X79200000Y-68575000D01*
X88950000Y-108375000D02*
X88950000Y-78325000D01*
X89600000Y-109025000D02*
X88950000Y-108375000D01*
X89600000Y-109025000D02*
X90300000Y-109025000D01*
X79200000Y-68575000D02*
X88950000Y-78325000D01*
X82400000Y-58625000D02*
X82400000Y-66575000D01*
X92250000Y-109025000D02*
X93050000Y-109025000D01*
X92250000Y-109025000D02*
X91650000Y-108425000D01*
X91650000Y-108425000D02*
X91650000Y-75825000D01*
X82400000Y-66575000D02*
X91650000Y-75825000D01*
X85600000Y-58625000D02*
X85600000Y-66275000D01*
X94400000Y-76475000D02*
X94750000Y-76125000D01*
X94400000Y-107975000D02*
X94400000Y-76475000D01*
X95450000Y-109025000D02*
X94400000Y-107975000D01*
X95450000Y-109025000D02*
X95800000Y-109025000D01*
X94750000Y-75425000D02*
X94750000Y-76125000D01*
X85600000Y-66275000D02*
X94750000Y-75425000D01*
X88800000Y-58625000D02*
X88800000Y-67225000D01*
X97200002Y-107925002D02*
X98300000Y-109025000D01*
X97200002Y-107925002D02*
X97200002Y-79024998D01*
X97200002Y-79024998D02*
X97500000Y-78725000D01*
X97500000Y-75925000D02*
X97500000Y-78725000D01*
X88800000Y-67225000D02*
X97500000Y-75925000D01*
X98550000Y-109025000D02*
X98300000Y-109025000D01*
D19*
X144900000Y-66075000D02*
X144900000Y-69725000D01*
X144850000Y-66025000D02*
X144900000Y-66075000D01*
M02*
