G04 #@! TF.FileFunction,Soldermask,Top*
%FSLAX46Y46*%
G04 Gerber Fmt 4.6, Leading zero omitted, Abs format (unit mm)*
G04 Created by KiCad (PCBNEW 4.0.1-stable) date 11/11/2016 12:06:41 PM*
%MOMM*%
G01*
G04 APERTURE LIST*
%ADD10C,0.100000*%
%ADD11R,0.500000X2.800000*%
%ADD12R,1.400000X1.500000*%
%ADD13R,1.400000X1.300000*%
%ADD14R,0.700000X0.800000*%
%ADD15C,2.540000*%
%ADD16R,2.100000X1.400000*%
%ADD17C,3.200000*%
%ADD18C,0.604800*%
%ADD19C,0.254000*%
G04 APERTURE END LIST*
D10*
D11*
X114400000Y-58625000D03*
X115200000Y-58625000D03*
X116000000Y-58625000D03*
X116800000Y-58625000D03*
X100800000Y-58625000D03*
X101600000Y-58625000D03*
X100000000Y-58625000D03*
X99200000Y-58625000D03*
X91200000Y-58625000D03*
X95200000Y-58625000D03*
X97600000Y-58625000D03*
X98400000Y-58625000D03*
X96800000Y-58625000D03*
X96000000Y-58625000D03*
X113600000Y-58625000D03*
X112800000Y-58625000D03*
X112000000Y-58625000D03*
X108800000Y-58625000D03*
X109600000Y-58625000D03*
X111200000Y-58625000D03*
X110400000Y-58625000D03*
X104000000Y-58625000D03*
X104800000Y-58625000D03*
X103200000Y-58625000D03*
X102400000Y-58625000D03*
X105600000Y-58625000D03*
X106400000Y-58625000D03*
X108000000Y-58625000D03*
X107200000Y-58625000D03*
X84000000Y-58625000D03*
X84800000Y-58625000D03*
X83200000Y-58625000D03*
X82400000Y-58625000D03*
X79200000Y-58625000D03*
X80000000Y-58625000D03*
X81600000Y-58625000D03*
X80800000Y-58625000D03*
X87200000Y-58625000D03*
X88000000Y-58625000D03*
X86400000Y-58625000D03*
X85600000Y-58625000D03*
X88800000Y-58625000D03*
X89600000Y-58625000D03*
X90400000Y-58625000D03*
X72800000Y-58625000D03*
X73600000Y-58625000D03*
X75200000Y-58625000D03*
X74400000Y-58625000D03*
X68000000Y-58625000D03*
X68800000Y-58625000D03*
X67200000Y-58625000D03*
X66400000Y-58625000D03*
X69600000Y-58625000D03*
X70400000Y-58625000D03*
X72000000Y-58625000D03*
X71200000Y-58625000D03*
X76000000Y-58625000D03*
X76800000Y-58625000D03*
X78400000Y-58625000D03*
X77600000Y-58625000D03*
D12*
X94900000Y-133175000D03*
X105100000Y-133175000D03*
X94900000Y-139675000D03*
X105100000Y-139675000D03*
D13*
X94900000Y-136875000D03*
X105100000Y-136875000D03*
D14*
X109500000Y-131800000D03*
X112500000Y-131800000D03*
X87500000Y-131800000D03*
X90500000Y-131747000D03*
D15*
X147000000Y-133000000D03*
X53000000Y-133000000D03*
D16*
X119000000Y-137750000D03*
X119000000Y-133250000D03*
X129000000Y-137750000D03*
X129000000Y-133250000D03*
D17*
X144000000Y-74000000D03*
X144000000Y-125000000D03*
X56000000Y-125000000D03*
X56000000Y-74000000D03*
D16*
X81025000Y-133225000D03*
X81025000Y-137725000D03*
X71025000Y-133225000D03*
X71025000Y-137725000D03*
D18*
X79300000Y-109025000D03*
X79300000Y-106275000D03*
X79300000Y-103525000D03*
X79300000Y-100775000D03*
X79300000Y-98025000D03*
X79300000Y-95275000D03*
X79300000Y-92525000D03*
X79300000Y-89775000D03*
X82050000Y-109025000D03*
X82050000Y-106275000D03*
X82050000Y-103525000D03*
X82050000Y-100775000D03*
X82050000Y-98025000D03*
X82050000Y-95275000D03*
X82050000Y-92525000D03*
X82050000Y-89775000D03*
X84800000Y-109025000D03*
X84800000Y-106275000D03*
X84800000Y-103525000D03*
X84800000Y-100775000D03*
X84800000Y-98025000D03*
X84800000Y-95275000D03*
X84800000Y-92525000D03*
X84800000Y-89775000D03*
X87550000Y-109025000D03*
X87550000Y-106275000D03*
X87550000Y-103525000D03*
X87550000Y-100775000D03*
X87550000Y-98025000D03*
X87550000Y-95275000D03*
X87550000Y-92525000D03*
X87550000Y-89775000D03*
X90300000Y-109025000D03*
X90300000Y-106275000D03*
X90300000Y-103525000D03*
X90300000Y-100775000D03*
X90300000Y-98025000D03*
X90300000Y-95275000D03*
X90300000Y-92525000D03*
X90300000Y-89775000D03*
X93050000Y-109025000D03*
X93050000Y-106275000D03*
X93050000Y-103525000D03*
X93050000Y-100775000D03*
X93050000Y-98025000D03*
X93050000Y-95275000D03*
X93050000Y-92525000D03*
X93050000Y-89775000D03*
X95800000Y-109025000D03*
X95800000Y-106275000D03*
X95800000Y-103525000D03*
X95800000Y-100775000D03*
X95800000Y-98025000D03*
X95800000Y-95275000D03*
X95800000Y-92525000D03*
X95800000Y-89775000D03*
X98550000Y-109025000D03*
X98550000Y-106275000D03*
X98550000Y-103525000D03*
X98550000Y-100775000D03*
X98550000Y-98025000D03*
X98550000Y-95275000D03*
X98550000Y-92525000D03*
X98550000Y-89775000D03*
X101300000Y-109025000D03*
X101300000Y-106275000D03*
X101300000Y-103525000D03*
X101300000Y-100775000D03*
X101300000Y-98025000D03*
X101300000Y-95275000D03*
X101300000Y-92525000D03*
X101300000Y-89775000D03*
X104050000Y-109025000D03*
X104050000Y-106275000D03*
X104050000Y-103525000D03*
X104050000Y-100775000D03*
X104050000Y-98025000D03*
X104050000Y-95275000D03*
X104050000Y-92525000D03*
X104050000Y-89775000D03*
X106800000Y-109025000D03*
X106800000Y-106275000D03*
X106800000Y-103525000D03*
X106800000Y-100775000D03*
X106800000Y-98025000D03*
X106800000Y-95275000D03*
X106800000Y-92525000D03*
X106800000Y-89775000D03*
X109550000Y-109025000D03*
X109550000Y-106275000D03*
X109550000Y-103525000D03*
X109550000Y-100775000D03*
X109550000Y-98025000D03*
X109550000Y-95275000D03*
X109550000Y-92525000D03*
X109550000Y-89775000D03*
X112300000Y-109025000D03*
X112300000Y-106275000D03*
X112300000Y-103525000D03*
X112300000Y-100775000D03*
X112300000Y-98025000D03*
X112300000Y-95275000D03*
X112300000Y-92525000D03*
X112300000Y-89775000D03*
X115050000Y-109025000D03*
X115050000Y-106275000D03*
X115050000Y-103525000D03*
X115050000Y-100775000D03*
X115050000Y-98025000D03*
X115050000Y-95275000D03*
X115050000Y-92525000D03*
X115050000Y-89775000D03*
X117800000Y-109025000D03*
X117800000Y-106275000D03*
X117800000Y-103525000D03*
X117800000Y-100775000D03*
X117800000Y-98025000D03*
X117800000Y-95275000D03*
X117800000Y-92525000D03*
X117800000Y-89775000D03*
D11*
X144500000Y-58625000D03*
X145300000Y-58625000D03*
X139700000Y-58625000D03*
X140500000Y-58625000D03*
X138900000Y-58625000D03*
X138100000Y-58625000D03*
X141300000Y-58625000D03*
X142100000Y-58625000D03*
X143700000Y-58625000D03*
X142900000Y-58625000D03*
D19*
G36*
X149885000Y-130869000D02*
X50139000Y-130869000D01*
X50139000Y-68123000D01*
X149885000Y-68123000D01*
X149885000Y-130869000D01*
X149885000Y-130869000D01*
G37*
X149885000Y-130869000D02*
X50139000Y-130869000D01*
X50139000Y-68123000D01*
X149885000Y-68123000D01*
X149885000Y-130869000D01*
M02*
