M48
;DRILL file {KiCad 4.0.1-stable} date 11/11/2016 12:06:43 PM
;FORMAT={2:4/ absolute / inch / suppress leading zeros}
FMAT,2
INCH,TZ
T1C0.012
T2C0.016
%
G90
G05
M72
T1
X31220Y-35344
X31220Y-36427
X31220Y-37510
X31220Y-38593
X31220Y-39675
X31220Y-40758
X31220Y-41841
X31220Y-42923
X32303Y-35344
X32303Y-36427
X32303Y-37510
X32303Y-38593
X32303Y-39675
X32303Y-40758
X32303Y-41841
X32303Y-42923
X33386Y-35344
X33386Y-36427
X33386Y-37510
X33386Y-38593
X33386Y-39675
X33386Y-40758
X33386Y-41841
X33386Y-42923
X34469Y-35344
X34469Y-36427
X34469Y-37510
X34469Y-38593
X34469Y-39675
X34469Y-40758
X34469Y-41841
X34469Y-42923
X35551Y-35344
X35551Y-36427
X35551Y-37510
X35551Y-38593
X35551Y-39675
X35551Y-40758
X35551Y-41841
X35551Y-42923
X36634Y-35344
X36634Y-36427
X36634Y-37510
X36634Y-38593
X36634Y-39675
X36634Y-40758
X36634Y-41841
X36634Y-42923
X37717Y-35344
X37717Y-36427
X37717Y-37510
X37717Y-38593
X37717Y-39675
X37717Y-40758
X37717Y-41841
X37717Y-42923
X38799Y-35344
X38799Y-36427
X38799Y-37510
X38799Y-38593
X38799Y-39675
X38799Y-40758
X38799Y-41841
X38799Y-42923
X39882Y-35344
X39882Y-36427
X39882Y-37510
X39882Y-38593
X39882Y-39675
X39882Y-40758
X39882Y-41841
X39882Y-42923
X40965Y-35344
X40965Y-36427
X40965Y-37510
X40965Y-38593
X40965Y-39675
X40965Y-40758
X40965Y-41841
X40965Y-42923
X42047Y-35344
X42047Y-36427
X42047Y-37510
X42047Y-38593
X42047Y-39675
X42047Y-40758
X42047Y-41841
X42047Y-42923
X43130Y-35344
X43130Y-36427
X43130Y-37510
X43130Y-38593
X43130Y-39675
X43130Y-40758
X43130Y-41841
X43130Y-42923
X44213Y-35344
X44213Y-36427
X44213Y-37510
X44213Y-38593
X44213Y-39675
X44213Y-40758
X44213Y-41841
X44213Y-42923
X45295Y-35344
X45295Y-36427
X45295Y-37510
X45295Y-38593
X45295Y-39675
X45295Y-40758
X45295Y-41841
X45295Y-42923
X46378Y-35344
X46378Y-36427
X46378Y-37510
X46378Y-38593
X46378Y-39675
X46378Y-40758
X46378Y-41841
X46378Y-42923
T2
X28862Y-52514
X29862Y-33809
X30177Y-33612
X30512Y-33396
X30827Y-33199
X31142Y-32982
X31417Y-32746
X31732Y-32530
X32067Y-32352
X32402Y-32136
X32697Y-31919
X33012Y-31722
X33307Y-31506
X33622Y-31289
X33937Y-31073
X34119Y-51911
X34252Y-30856
X34567Y-30640
X34882Y-30443
X35217Y-30266
X35512Y-30049
X35827Y-29852
X36161Y-29675
X36457Y-29459
X36831Y-29656
X37106Y-29911
X37362Y-30167
X37638Y-30423
X37819Y-53911
X37819Y-55011
X37869Y-52411
X37913Y-30659
X38189Y-30915
X38484Y-31152
X38799Y-31348
X39094Y-31604
X39370Y-31860
X39587Y-32175
X39744Y-32549
X40079Y-32746
X40354Y-33002
X40650Y-33238
X40807Y-33612
X40869Y-53861
X41161Y-33789
X41358Y-30610
X41457Y-34006
X41673Y-30394
X41978Y-30167
X42283Y-29951
X42638Y-29774
X42669Y-51911
X42943Y-29557
X43287Y-29370
X43622Y-29163
X43937Y-28967
X44272Y-28770
X44591Y-52439
X44626Y-28573
X44970Y-28406
X45315Y-28228
X45433Y-51179
X45650Y-28051
X45984Y-27874
X46299Y-27677
X46634Y-27500
X46978Y-27323
X47352Y-27559
X47736Y-27746
X51870Y-51900
X52008Y-52510
X52933Y-52087
X56437Y-25571
X56890Y-25217
X57028Y-25994
X57205Y-24980
T0
M30
