G04 #@! TF.FileFunction,Profile,NP*
%FSLAX46Y46*%
G04 Gerber Fmt 4.6, Leading zero omitted, Abs format (unit mm)*
G04 Created by KiCad (PCBNEW 4.0.1-stable) date 11/11/2016 12:06:42 PM*
%MOMM*%
G01*
G04 APERTURE LIST*
%ADD10C,0.100000*%
G04 APERTURE END LIST*
D10*
X62875000Y-68000000D02*
X50000000Y-68000000D01*
X146330000Y-68005000D02*
X150000000Y-68005000D01*
X146330000Y-56225000D02*
X146330000Y-68005000D01*
X137080000Y-56225000D02*
X146330000Y-56225000D01*
X120320000Y-67995000D02*
X120320000Y-68005000D01*
X137080000Y-67995000D02*
X120320000Y-67995000D01*
X137080000Y-56225000D02*
X137080000Y-67995000D01*
X122325000Y-62200000D02*
X118825000Y-62200000D01*
X118815000Y-62200000D02*
G75*
G02X117815000Y-61200000I0J1000000D01*
G01*
X122325000Y-62200000D02*
X122325000Y-63980000D01*
X122325000Y-63980000D02*
X121305000Y-63980000D01*
X120325000Y-68000000D02*
X120325000Y-64990000D01*
X120325000Y-64990000D02*
G75*
G02X121335000Y-63980000I1010000J0D01*
G01*
X62870000Y-64995000D02*
G75*
G03X61860000Y-63985000I-1010000J0D01*
G01*
X62870000Y-68005000D02*
X62870000Y-64995000D01*
X60870000Y-63985000D02*
X61890000Y-63985000D01*
X60870000Y-62205000D02*
X60870000Y-63985000D01*
X64370000Y-62205000D02*
G75*
G03X65370000Y-61205000I0J1000000D01*
G01*
X60870000Y-62205000D02*
X64370000Y-62205000D01*
X65370000Y-56205000D02*
X65370000Y-61195000D01*
X94400000Y-61400000D02*
G75*
G02X92000000Y-61400000I-1200000J0D01*
G01*
X117820000Y-56205000D02*
X117820000Y-61245000D01*
X94400000Y-56205000D02*
X117820000Y-56205000D01*
X94400000Y-61445000D02*
X94400000Y-56205000D01*
X92000000Y-56205000D02*
X92000000Y-61435000D01*
X65370000Y-56205000D02*
X92000000Y-56205000D01*
X50000000Y-68000000D02*
X50000000Y-134975000D01*
X150000000Y-68000000D02*
X150000000Y-134975000D01*
X53312000Y-135916000D02*
X49992000Y-134986000D01*
X56532000Y-136736000D02*
X53312000Y-135916000D01*
X61712000Y-137936000D02*
X56532000Y-136736000D01*
X67632000Y-139116000D02*
X61712000Y-137936000D01*
X72892000Y-139996000D02*
X67632000Y-139116000D01*
X78192000Y-140716000D02*
X72892000Y-139996000D01*
X83552000Y-141276000D02*
X78192000Y-140716000D01*
X88742000Y-141686000D02*
X83552000Y-141276000D01*
X92882000Y-141896000D02*
X88742000Y-141686000D01*
X98602000Y-142006000D02*
X92882000Y-141896000D01*
X102582000Y-142006000D02*
X98602000Y-142006000D01*
X106212000Y-141916000D02*
X102582000Y-142006000D01*
X111462000Y-141656000D02*
X106212000Y-141916000D01*
X115842000Y-141336000D02*
X111462000Y-141656000D01*
X120962000Y-140796000D02*
X115842000Y-141336000D01*
X124962000Y-140296000D02*
X120962000Y-140796000D01*
X130032000Y-139516000D02*
X124962000Y-140296000D01*
X135352000Y-138536000D02*
X130032000Y-139516000D01*
X139252000Y-137716000D02*
X135352000Y-138536000D01*
X142962000Y-136856000D02*
X139252000Y-137716000D01*
X147202000Y-135766000D02*
X142962000Y-136856000D01*
X149992000Y-134986000D02*
X147202000Y-135766000D01*
M02*
